<svg class="logo-svg" version="1.1" id="Layer_1" xmlns="http://www.w3.org/2000/svg" xmlns:xlink="http://www.w3.org/1999/xlink" x="0px" y="0px" viewBox="0 0 177.5 80.1" style="enable-background:new 0 0 177.5 80.1;" xml:space="preserve">
<style type="text/css">
	.st0{fill:#fff;}
</style>
<g>
	<g>
		<path class="st0" d="M111.2,14.3c-0.6-0.8-1.4-1.4-2.2-1.9c0,0,0,0,0,0c-0.3-0.2-0.5-0.3-0.8-0.4c0,0,0,0,0,0
			c-0.9-0.5-1.9-0.9-2.9-1.3c-1.5-0.6-3-1.2-4.3-2c0,0,0,0,0,0c0,0,0,0,0,0c0,0,0,0,0,0c0,0,0,0,0,0c0,0,0,0,0,0c0,0,0,0,0,0
			c-0.7,4.7,0.5,9,3.2,11.9c0,0,0.2,0.2,0.3,0.3c2.1,2,4.8,2.9,7.5,2.5c0,0,0,0,0,0c0,0,0,0,0,0c0,0,0,0,0,0c0,0,0,0,0,0
			C112.9,19.2,112.7,16.3,111.2,14.3z"></path>
		<g>
			<path class="st0" d="M84.8,17.4c-0.1-0.1-0.2-0.1-0.3-0.1c-0.1,0-0.3,0.1-0.5,0.3c-0.8,0.8-1.3,1.3-1.5,1.5
				c-0.3,0.3-0.6,0.5-0.7,0.6c-0.4,0.4-0.8,0.7-1.1,1c-0.3,0.3-0.7,0.5-1.1,0.6c-0.3,0.1-0.4,0.2-0.5,0.2c-0.1,0-0.3-0.1-0.4-0.3
				c-0.2-0.4-0.3-0.8-0.3-1.3c0-0.5,0.1-1,0.3-1.5c0.2-0.5,0.5-0.8,0.9-1.1c0.6-0.4,1.2-0.9,1.6-1.4c0.5-0.5,0.8-1,1-1.6
				c0.1-0.2,0.1-0.4,0.1-0.6c0-0.2-0.1-0.5-0.2-0.6c-0.2-0.2-0.4-0.3-0.6-0.3c-0.2,0-0.4,0-0.6,0.1c-0.4,0.1-0.7,0.3-1,0.6
				c-0.9,0.7-1.6,1.6-1.9,2.7c-0.2,0.4-0.3,0.9-0.4,1.4l-3,3c-0.2,0.2-0.3,0.2-0.4,0.2c-0.2,0-0.3-0.2-0.3-0.5
				c-0.1-0.7-0.2-1.5-0.2-2.2l-0.1-0.6c0-0.6-0.1-1-0.2-1.3c-0.3-0.6-0.6-0.9-1.1-0.9c-0.2,0-0.5,0.1-0.8,0.2
				c-0.8,0.4-1.6,1-2.5,1.8l-2,1.9l-1.3,1.2l1.1-3.8c0.6-2.1,1.2-4,2-5.9c1.8-0.5,3.9-1.1,6.5-1.7c0.1,0,0.1,0,0.2-0.1
				c0.1,0,0.2-0.1,0.3-0.1c0.1,0,0.1-0.1,0.1-0.3c0-0.1,0-0.1,0-0.2c-0.1-0.3-0.2-0.4-0.5-0.4c-0.1,0-0.2,0-0.3,0
				c-0.1,0-0.1,0-0.2,0.1l-1.2,0.3c-1.3,0.3-2.5,0.6-3.6,0.9c-0.3,0.1-0.6,0.2-0.9,0.3c0.9-2,1.9-3.9,3-5.6c0-0.1,0.1-0.2,0.2-0.3
				c0.1-0.1,0.2-0.3,0.2-0.4c0-0.1-0.1-0.3-0.3-0.4c-0.1-0.1-0.2-0.1-0.3-0.1c-0.1,0-0.2,0-0.3,0.1c-0.1,0.1-0.2,0.2-0.2,0.3
				c-0.1,0.1-0.1,0.2-0.2,0.3c-0.6,0.9-1.2,1.8-1.7,2.7c-0.5,1-1,2.2-1.7,3.6l0,0.1c-1,0.3-2.2,0.6-3.6,1c-0.1,0.1-0.3,0.1-0.4,0.1
				S64,11,64,10.9c0-0.1,0-0.2,0-0.2c0.2-0.6,0.3-1.1,0.4-1.4c0.6-2,1-3.5,1.4-4.5c0.2-0.5,0.4-1.1,0.7-1.8c0.3-0.7,0.5-1.2,0.6-1.5
				c0-0.1,0.1-0.3,0.3-0.6c0.1-0.2,0.1-0.4,0.1-0.5c0-0.2-0.1-0.3-0.2-0.3c-0.1-0.1-0.1-0.1-0.2-0.1c-0.2,0-0.3,0.1-0.5,0.4
				c-1,2.6-1.5,3.9-1.6,3.9c-0.7,1.7-1.1,2.8-1.3,3.3c-0.2,0.5-0.5,1.5-0.9,3c-0.1,0.3-0.2,0.5-0.4,0.7c-0.2,0.2-0.4,0.3-0.7,0.4
				c-0.9,0.2-1.6,0.5-2.2,0.9c-0.2,0.1-0.3,0.3-0.3,0.5c0,0.1,0,0.2,0.1,0.2c0.1,0.1,0.2,0.2,0.3,0.2c0.1,0,0.2,0,0.3-0.1l1.6-0.6
				c0.2-0.1,0.4-0.1,0.5-0.1c0.2,0,0.2,0.1,0.2,0.3c0,0.1,0,0.2-0.1,0.4c-0.2,0.8-0.5,2.2-0.8,4.1c-0.3,1.9-0.5,3.4-0.5,4.5
				c0,0.3,0,0.5,0.1,0.6c0.1,0.2,0.2,0.2,0.5,0.2c0.3,0,0.5-0.2,0.5-0.7c0.1-0.9,0.3-2.4,0.6-4.3c0.3-2,0.6-3.6,0.9-5
				c0.1-0.4,0.3-0.7,0.7-0.8c1-0.3,2.1-0.7,3.4-1.1c0,0,0,0,0,0c-0.9,2.1-1.6,4.4-2.4,7c-0.2,0.7-0.3,1.2-0.4,1.7
				c-0.1,0.4-0.1,0.9-0.1,1.3c0,0.3,0,0.6,0.1,0.7c0.1,0.2,0.2,0.2,0.4,0.2c0.2,0,0.3,0,0.5-0.1c0.2-0.1,0.4-0.2,0.6-0.4l2.7-2.6
				c1.1-1,1.9-1.7,2.5-2.1c0.3-0.3,0.5-0.4,0.7-0.4c0.2,0,0.4,0.3,0.5,0.8c0.1,0.5,0.1,1.2,0.2,2.1c0,0.4,0,0.7,0,0.9
				c0,0.5,0.1,0.9,0.2,1.1c0.1,0.2,0.2,0.4,0.4,0.5c0.2,0.1,0.3,0.2,0.5,0.2c0.2,0,0.3-0.1,0.5-0.2c0.5-0.3,0.9-0.6,1.3-1
				c0.4-0.4,0.9-0.9,1.6-1.5c0,0.2-0.1,0.4-0.1,0.6c0,0.3,0,0.6,0,0.7c0.1,0.7,0.2,1.2,0.5,1.5c0.3,0.4,0.7,0.5,1.2,0.5
				c0.4,0,0.9-0.1,1.3-0.4c0.4-0.2,0.8-0.5,1.3-1c0.5-0.4,0.8-0.7,0.8-0.7c0.9-0.7,1.7-1.5,2.4-2.5c0.1-0.2,0.2-0.3,0.2-0.4
				C85,17.6,84.9,17.5,84.8,17.4z M80.3,14.8c0.3-0.4,0.7-0.7,1.2-1c-0.4,1.1-1.1,1.8-2,2.3C79.7,15.6,80,15.2,80.3,14.8z"></path>
			<g>
				<path class="st0" d="M45.9,46.2v16c-1-3.2-4.4-6.8-6.1-7c-2.1,2.1-6.1,7.1-14.9,7.1c-15.9,0-24.7-12-24.7-26.7
					c0-19.8,16.8-27.3,30.4-26.3c7.9,0.6,12.6,3.2,14.4,4.2L45,26.4c-1.1-2.7-5.2-9.9-11.7-13.4c-5.5-3.1-10.9-3.1-15.2-1
					c-6.5,3-10,11.7-8.9,23.5c1.3,15.2,10,23.9,18.8,24.4c3,0.1,5.2-0.4,7.2-1.8c4-2.6,4.3-7.7,4.3-11.2v-0.4c0-6.1-7.2-6.4-7.2-6.4
					H51C51,39.8,45.9,40.2,45.9,46.2z"></path>
				<path class="st0" d="M80.7,53.8c-2.7,3.4-8.9,8.7-15.5,8.1c-7.1-0.7-6.6-7.5-6.6-14.6V33.7c0-5.7-4.9-5.7-5.5-5.7h12.6v5.7v10.5
					c0,7.4-0.1,11.5,3.1,13C71.6,58.7,77.3,57.2,80.7,53.8z M75.7,28.1h12.4v25.5c0,3,2.5,2.8,3,2.7l-10,6.1v-5.2V33.4
					C81.1,28.1,76.3,28.1,75.7,28.1z"></path>
				<path class="st0" d="M114.7,61.2H96.3c0.6,0,5.9,0,5.9-5.8V36.2c0-3.5-2.1-3.9-3.5-3.5l10.4-6.3v29.1
					C109.2,61.2,114,61.2,114.7,61.2z"></path>
				<path class="st0" d="M137,61.2h-19.6c0.6,0,6.4,0,6.4-5.8V18.8c0-4.7-2.7-4.4-3.5-4.2l10.4-6.4v47.3
					C130.7,61.2,136.4,61.2,137,61.2z"></path>
				<path class="st0" d="M156.2,62.2c-8.5,0.3-15.7-6.3-15.9-17.3c-0.2-12.1,8-18.3,16.1-18.5c3-0.1,7.1,0.5,9.7,3.1V18.7
					c0-3.7-2.5-4.3-3.8-3.8l10.7-6.6v44.5c0,4.4,3.9,3.3,4.1,3.3l-11,6.7V44.2c0-9.9-3.8-17-9.7-17.2c-5.7-0.2-9.4,7.2-8.7,16.6
					c0.5,8.6,5,14.8,10.6,15.5c4.1,0.4,6.6-2.4,7.5-3.8C164.9,57.2,162.8,62,156.2,62.2z"></path>
			</g>
		</g>
	</g>
	<g>
		<path class="st0" d="M11.8,77.2c0-1.6,1.2-2.8,2.8-2.8c1.1,0,1.8,0.6,2.2,1.2L15.9,76c-0.3-0.4-0.8-0.8-1.4-0.8
			c-1,0-1.8,0.8-1.8,1.9c0,1.1,0.8,1.9,1.8,1.9c0.6,0,1.1-0.3,1.4-0.8l0.8,0.4c-0.4,0.6-1.1,1.2-2.2,1.2
			C13,79.9,11.8,78.8,11.8,77.2z"></path>
		<path class="st0" d="M19.5,74.5h0.9V79h2.4v0.8h-3.3V74.5z"></path>
		<path class="st0" d="M25.8,74.5h3.7v0.8h-2.7v1.4h2.7v0.8h-2.7V79h2.7v0.8h-3.7V74.5z"></path>
		<path class="st0" d="M35.8,78.8h-2.5l-0.4,1h-1l2.1-5.3h1.2l2.1,5.3h-1L35.8,78.8z M33.6,78h2l-1-2.7L33.6,78z"></path>
		<path class="st0" d="M40.9,76v3.9h-0.9v-5.3h1l2.7,3.8v-3.8h0.9v5.3h-0.9L40.9,76z"></path>
		<path class="st0" d="M56.3,79.8h-1.1c-0.1-0.1-0.3-0.3-0.5-0.5c-0.4,0.3-0.9,0.6-1.5,0.6c-1,0-1.7-0.5-1.7-1.5
			c0-0.8,0.6-1.2,1.2-1.6c-0.2-0.4-0.4-0.8-0.4-1.2c0-0.7,0.6-1.3,1.4-1.3c0.7,0,1.3,0.4,1.3,1.1c0,0.8-0.7,1.2-1.3,1.5
			c0.2,0.2,0.4,0.5,0.5,0.7c0.2,0.2,0.4,0.4,0.5,0.6c0.3-0.4,0.4-0.8,0.5-1.1l0.7,0.3c-0.2,0.4-0.4,0.9-0.7,1.3
			C55.6,79.1,56,79.5,56.3,79.8z M54.3,78.9c-0.3-0.3-0.5-0.6-0.7-0.7c-0.2-0.2-0.4-0.5-0.6-0.8c-0.3,0.2-0.6,0.5-0.6,1
			c0,0.6,0.4,0.9,0.9,0.9C53.7,79.3,54,79.1,54.3,78.9z M53.5,76.5c0.5-0.2,0.9-0.5,0.9-0.9c0-0.3-0.2-0.5-0.5-0.5
			c-0.4,0-0.6,0.3-0.6,0.7C53.2,76,53.3,76.2,53.5,76.5z"></path>
		<path class="st0" d="M63,77.2c0-1.6,1.2-2.8,2.8-2.8c1.1,0,1.8,0.6,2.2,1.2L67.2,76c-0.3-0.4-0.8-0.8-1.4-0.8
			c-1,0-1.8,0.8-1.8,1.9c0,1.1,0.8,1.9,1.8,1.9c0.6,0,1.1-0.3,1.4-0.8l0.8,0.4c-0.4,0.6-1.1,1.2-2.2,1.2C64.2,79.9,63,78.8,63,77.2z
			"></path>
		<path class="st0" d="M73.3,74.4c1.6,0,2.7,1.2,2.7,2.8c0,1.6-1.1,2.8-2.7,2.8s-2.7-1.2-2.7-2.8C70.6,75.6,71.7,74.4,73.3,74.4z
			 M73.3,75.3c-1.1,0-1.8,0.8-1.8,1.9c0,1.1,0.7,1.9,1.8,1.9c1.1,0,1.8-0.8,1.8-1.9C75,76.1,74.4,75.3,73.3,75.3z"></path>
		<path class="st0" d="M79.9,76v3.9H79v-5.3h1l2.7,3.8v-3.8h0.9v5.3h-0.9L79.9,76z"></path>
		<path class="st0" d="M87,78.4c0.4,0.4,0.9,0.7,1.7,0.7c0.8,0,1.1-0.4,1.1-0.7c0-0.5-0.6-0.6-1.2-0.8c-0.9-0.2-1.9-0.5-1.9-1.6
			c0-0.9,0.8-1.6,1.9-1.6c0.8,0,1.5,0.3,2,0.7l-0.5,0.7c-0.4-0.4-1-0.6-1.5-0.6c-0.6,0-0.9,0.3-0.9,0.7c0,0.4,0.5,0.6,1.2,0.7
			c0.9,0.2,1.9,0.5,1.9,1.7c0,0.9-0.6,1.6-2.1,1.6c-1,0-1.7-0.3-2.2-0.8L87,78.4z"></path>
		<path class="st0" d="M93.4,77.2c0-1.6,1.2-2.8,2.8-2.8c1.1,0,1.8,0.6,2.2,1.2L97.6,76c-0.3-0.4-0.8-0.8-1.4-0.8
			c-1,0-1.8,0.8-1.8,1.9c0,1.1,0.8,1.9,1.8,1.9c0.6,0,1.1-0.3,1.4-0.8l0.8,0.4c-0.4,0.6-1.1,1.2-2.2,1.2
			C94.7,79.9,93.4,78.8,93.4,77.2z"></path>
		<path class="st0" d="M101.2,74.5h0.9v5.3h-0.9V74.5z"></path>
		<path class="st0" d="M107.8,74.4c1.6,0,2.7,1.2,2.7,2.8c0,1.6-1.1,2.8-2.7,2.8c-1.6,0-2.7-1.2-2.7-2.8
			C105.1,75.6,106.2,74.4,107.8,74.4z M107.8,75.3c-1.1,0-1.8,0.8-1.8,1.9c0,1.1,0.7,1.9,1.8,1.9c1.1,0,1.8-0.8,1.8-1.9
			C109.6,76.1,108.9,75.3,107.8,75.3z"></path>
		<path class="st0" d="M113.6,74.5h0.9v3.2c0,0.8,0.5,1.4,1.4,1.4c0.9,0,1.4-0.6,1.4-1.4v-3.2h0.9v3.2c0,1.3-0.8,2.2-2.3,2.2
			c-1.6,0-2.3-0.9-2.3-2.2V74.5z"></path>
		<path class="st0" d="M121.6,78.4c0.4,0.4,0.9,0.7,1.7,0.7c0.8,0,1.1-0.4,1.1-0.7c0-0.5-0.6-0.6-1.2-0.8c-0.9-0.2-1.9-0.5-1.9-1.6
			c0-0.9,0.8-1.6,1.9-1.6c0.8,0,1.5,0.3,2,0.7l-0.5,0.7c-0.4-0.4-1-0.6-1.5-0.6c-0.6,0-0.9,0.3-0.9,0.7c0,0.4,0.5,0.6,1.2,0.7
			c0.9,0.2,1.9,0.5,1.9,1.7c0,0.9-0.6,1.6-2.1,1.6c-1,0-1.7-0.3-2.2-0.8L121.6,78.4z"></path>
		<path class="st0" d="M132.4,74.5h0.9V79h2.4v0.8h-3.3V74.5z"></path>
		<path class="st0" d="M138.6,74.5h0.9v5.3h-0.9V74.5z"></path>
		<path class="st0" d="M142.2,74.5h1.1l1.6,4.3l1.6-4.3h1.1l-2.1,5.3h-1.2L142.2,74.5z"></path>
		<path class="st0" d="M150.2,74.5h0.9v5.3h-0.9V74.5z"></path>
		<path class="st0" d="M155.3,76v3.9h-0.9v-5.3h1l2.7,3.8v-3.8h0.9v5.3h-0.9L155.3,76z"></path>
		<path class="st0" d="M164.7,74.4c1,0,1.7,0.5,2.2,1.1l-0.8,0.4c-0.3-0.4-0.8-0.7-1.4-0.7c-1.1,0-1.8,0.8-1.8,1.9
			c0,1.1,0.8,1.9,1.8,1.9c0.5,0,1-0.3,1.3-0.5v-0.8h-1.6V77h2.5v2c-0.5,0.6-1.3,1-2.2,1c-1.5,0-2.8-1.1-2.8-2.8
			C161.9,75.5,163.2,74.4,164.7,74.4z"></path>
	</g>
</g>
</svg>