<?xml version="1.0" encoding="utf-8"?>
<!-- Generator: Adobe Illustrator 20.0.0, SVG Export Plug-In . SVG Version: 6.00 Build 0)  -->
<svg version="1.1" id="Layer_1" xmlns="http://www.w3.org/2000/svg" xmlns:xlink="http://www.w3.org/1999/xlink" x="0px" y="0px"
	 viewBox="0 0 260.9 56.3" style="enable-background:new 0 0 260.9 56.3;" xml:space="preserve">
<style type="text/css">
	.st0{fill:#FFFFFF;}
</style>
<g>
	<g>
		<polygon class="st0" points="254.3,1 255.2,1 255.2,3.5 255.8,3.5 255.8,1 256.7,1 256.7,0.4 254.3,0.4 		"/>
		<polygon class="st0" points="259.8,0.4 259,1.8 258.1,0.4 258.1,0.4 257.5,0.4 257.5,3.5 258.1,3.5 258.1,1.5 258.9,2.7 
			258.9,2.8 259,2.8 259.8,1.5 259.8,3.5 260.4,3.5 260.4,0.4 		"/>
		<rect x="0.4" y="0.4" class="st0" width="5.5" height="30.5"/>
		<polygon class="st0" points="36.2,20.6 21.4,0.5 21.4,0.4 16.3,0.4 16.3,30.9 21.8,30.9 21.8,10.2 37,30.8 37.1,30.9 41.7,30.9 
			41.7,0.4 36.2,0.4 		"/>
		<path class="st0" d="M74.2,4.8c-1.4-1.4-3-2.4-4.9-3.2s-4-1.2-6.2-1.2H52.2v30.5h10.9c2.3,0,4.4-0.4,6.2-1.2
			c1.9-0.8,3.5-1.9,4.9-3.2s2.4-3,3.2-4.8c0.7-1.9,1.1-3.9,1.1-6v-0.1c0-2.1-0.4-4.1-1.1-6C76.7,7.7,75.6,6.1,74.2,4.8z M57.7,5.7
			H63c1.5,0,2.8,0.3,4,0.7c1.2,0.5,2.2,1.2,3,2.1s1.5,1.9,1.9,3.2c0.5,1.2,0.7,2.5,0.7,4v0.1c0,1.4-0.2,2.8-0.7,4
			C71.4,21,70.8,22,70,22.9c-0.8,0.9-1.8,1.6-3,2c-1.2,0.5-2.5,0.7-4,0.7h-5.3V5.7z"/>
		<path class="st0" d="M105.4,17.9c0,2.7-0.6,4.7-1.9,6.1c-1.2,1.3-2.9,2-5.1,2s-3.9-0.7-5.1-2.1c-1.2-1.4-1.9-3.5-1.9-6.2V0.4h-5.5
			v17.5c0,2.2,0.3,4.1,0.9,5.8s1.4,3.1,2.5,4.2c1.1,1.1,2.4,2,3.9,2.6s3.2,0.8,5.1,0.8s3.6-0.3,5.2-0.8c1.5-0.6,2.9-1.4,3.9-2.6
			c1.1-1.2,1.9-2.6,2.5-4.3s0.9-3.7,0.9-6V0.4h-5.5L105.4,17.9L105.4,17.9z"/>
		<path class="st0" d="M138.8,16.2c-0.8-0.7-1.8-1.3-3-1.8c-1.1-0.5-2.5-0.9-4-1.3c-1.3-0.3-2.5-0.7-3.3-1c-0.9-0.3-1.6-0.6-2-1
			c-0.5-0.3-0.8-0.7-1-1.1s-0.3-0.9-0.3-1.4V8.5c0-0.9,0.4-1.7,1.1-2.3c0.8-0.6,1.8-1,3.2-1c1.3,0,2.5,0.3,3.8,0.8s2.5,1.3,3.8,2.2
			l0.2,0.2l3-4.4l-0.2-0.2c-1.5-1.2-3.1-2.2-4.8-2.8s-3.6-1-5.7-1c-1.4,0-2.8,0.2-4,0.7c-1.2,0.4-2.3,1-3.2,1.8s-1.6,1.7-2.1,2.8
			s-0.7,2.3-0.7,3.6V9c0,1.4,0.2,2.6,0.6,3.6c0.4,1,1.1,1.9,1.9,2.6c0.8,0.7,1.9,1.3,3.1,1.8c1.2,0.5,2.6,0.9,4.1,1.3
			c1.4,0.3,2.4,0.6,3.2,0.9s1.4,0.6,1.9,1c0.4,0.3,0.7,0.7,0.9,1.1c0.2,0.4,0.2,0.8,0.2,1.3v0.1c0,1.1-0.4,1.9-1.3,2.5
			c-0.9,0.6-2,1-3.5,1c-1.7,0-3.3-0.3-4.7-1s-2.8-1.6-4.1-2.8l0-0.3l-3.4,4.2l0.2,0.2c1.7,1.6,3.6,2.9,5.7,3.7
			c2,0.8,4.2,1.2,6.4,1.2c1.5,0,2.9-0.2,4.2-0.6c1.3-0.4,2.4-1,3.3-1.8c0.9-0.8,1.6-1.8,2.2-2.9c0.5-1.2,0.8-2.5,0.8-3.9v-0.1
			c0-1.3-0.2-2.4-0.6-3.3C140.2,17.8,139.6,16.9,138.8,16.2z"/>
		<polygon class="st0" points="148.1,5.8 157.1,5.8 157.1,30.9 162.7,30.9 162.7,5.8 171.7,5.8 171.7,0.4 148.1,0.4 		"/>
		<path class="st0" d="M199.2,18.3c0.9-0.5,1.6-1.2,2.2-2c0.6-0.8,1.1-1.7,1.5-2.7c0.3-1,0.5-2.2,0.5-3.4v-0.1
			c0-1.3-0.2-2.6-0.6-3.7c-0.4-1.1-1-2.1-1.8-3c-1-1-2.1-1.7-3.6-2.3c-1.4-0.5-3-0.8-4.9-0.8h-13v30.5h5.5V20.5h5.9l6.9,10.3
			l0.1,0.1h6.5l-7.8-11.5C197.6,19.2,198.5,18.8,199.2,18.3z M185.1,5.7h7c1.8,0,3.2,0.4,4.2,1.2c1,0.8,1.5,2,1.5,3.5v0.1
			c0,1.5-0.5,2.6-1.5,3.5s-2.4,1.3-4.1,1.3h-7.1L185.1,5.7L185.1,5.7z"/>
		<rect x="212.8" y="0.4" class="st0" width="5.5" height="30.5"/>
		<polygon class="st0" points="234.5,18.2 248.7,18.2 248.7,12.9 234.5,12.9 234.5,5.7 250.6,5.7 250.6,0.4 228.9,0.4 228.9,30.9 
			250.8,30.9 250.8,25.6 234.5,25.6 		"/>
	</g>
	<g>
		<g>
			<g>
				<path class="st0" d="M69.7,49.1h5.2v1.1h-4V52h3.5v1.1h-3.5V55h4v1.1h-5.2V49.1z"/>
				<path class="st0" d="M80.4,56.2c-0.5,0-1.1-0.1-1.6-0.3c-0.5-0.2-1-0.5-1.4-0.8l0.7-0.9c0.3,0.3,0.7,0.5,1,0.7s0.7,0.2,1.2,0.2
					c0.4,0,0.7-0.1,0.9-0.2c0.2-0.2,0.3-0.4,0.3-0.6l0,0c0-0.1,0-0.2-0.1-0.3c0-0.1-0.1-0.2-0.2-0.3c-0.1-0.1-0.3-0.2-0.5-0.2
					c-0.2-0.1-0.5-0.1-0.8-0.2c-0.4-0.1-0.7-0.2-1-0.3c-0.3-0.1-0.5-0.2-0.7-0.4c-0.2-0.2-0.3-0.3-0.5-0.6s-0.2-0.5-0.2-0.8l0,0
					c0-0.3,0.1-0.6,0.2-0.8c0.1-0.3,0.3-0.5,0.5-0.6c0.2-0.2,0.5-0.3,0.8-0.4c0.3-0.1,0.6-0.2,1-0.2c0.5,0,1,0.1,1.4,0.2
					s0.8,0.4,1.2,0.7L81.9,51c-0.3-0.2-0.6-0.4-1-0.5c-0.3-0.1-0.6-0.2-1-0.2s-0.6,0.1-0.8,0.2c-0.2,0.2-0.3,0.4-0.3,0.6l0,0
					c0,0.1,0,0.3,0.1,0.4c0,0.1,0.1,0.2,0.3,0.3c0.1,0.1,0.3,0.2,0.5,0.2c0.2,0.1,0.5,0.2,0.8,0.2c0.4,0.1,0.7,0.2,1,0.3
					c0.3,0.1,0.5,0.3,0.7,0.4c0.2,0.2,0.3,0.4,0.4,0.6c0.3,0,0.3,0.3,0.3,0.6l0,0c0,0.3-0.1,0.6-0.2,0.9s-0.3,0.5-0.5,0.7
					s-0.5,0.3-0.8,0.4C81.1,56.1,80.8,56.2,80.4,56.2z"/>
				<path class="st0" d="M87.6,50.2h-2.2v-1.1h5.7v1.1h-2.2v5.9h-1.2v-5.9H87.6z"/>
				<path class="st0" d="M96.4,49h1.1l3.1,7.1h-1.3l-0.7-1.7h-3.3l-0.7,1.7h-1.3L96.4,49z M98.1,53.3l-1.2-2.8l-1.2,2.8H98.1z"/>
				<path class="st0" d="M103.3,49.1h3.1c0.8,0,1.4,0.2,1.8,0.6c0.3,0.3,0.5,0.7,0.5,1.2l0,0c0,0.2,0,0.4-0.1,0.6
					c-0.1,0.2-0.1,0.3-0.2,0.4s-0.2,0.2-0.3,0.3c-0.1,0.1-0.2,0.2-0.4,0.2c0.2,0.1,0.4,0.2,0.6,0.3c0.2,0.1,0.3,0.2,0.4,0.3
					s0.2,0.3,0.3,0.5c0.1,0.2,0.1,0.4,0.1,0.6l0,0c0,0.3-0.1,0.6-0.2,0.8c-0.1,0.2-0.3,0.4-0.5,0.6s-0.5,0.3-0.8,0.4
					s-0.7,0.1-1.1,0.1h-3.2C103.3,56,103.3,49.1,103.3,49.1z M106.2,52c0.4,0,0.7-0.1,1-0.2c0.2-0.2,0.4-0.4,0.4-0.7l0,0
					c0-0.3-0.1-0.5-0.3-0.7c-0.2-0.2-0.5-0.2-0.9-0.2h-1.8v1.9h1.6V52z M106.6,55c0.4,0,0.7-0.1,1-0.2c0.2-0.2,0.4-0.4,0.4-0.7l0,0
					c0-0.3-0.1-0.5-0.4-0.7c-0.2-0.2-0.6-0.2-1.1-0.2h-1.9v1.9h2V55z"/>
				<path class="st0" d="M112,49.1h1.2V55h3.7v1.1H112C112,56.1,112,49.1,112,49.1z"/>
				<path class="st0" d="M119.8,49.1h1.2v7h-1.2V49.1z"/>
				<path class="st0" d="M126.9,56.2c-0.5,0-1.1-0.1-1.6-0.3c-0.5-0.2-1-0.5-1.4-0.8l0.7-0.9c0.3,0.3,0.7,0.5,1,0.7s0.7,0.2,1.2,0.2
					c0.4,0,0.7-0.1,0.9-0.2c0.2-0.2,0.3-0.4,0.3-0.6l0,0c0-0.1,0-0.2-0.1-0.3c0-0.1-0.1-0.2-0.2-0.3c-0.1-0.1-0.3-0.2-0.5-0.2
					c-0.2-0.1-0.5-0.1-0.8-0.2c-0.4-0.1-0.7-0.2-1-0.3c-0.3-0.1-0.5-0.2-0.7-0.4c-0.2-0.2-0.3-0.3-0.5-0.6s-0.2-0.5-0.2-0.8l0,0
					c0-0.3,0.1-0.6,0.2-0.8c0.1-0.3,0.3-0.5,0.5-0.6c0.2-0.2,0.5-0.3,0.8-0.4c0.3-0.1,0.6-0.2,1-0.2c0.5,0,1,0.1,1.4,0.2
					s0.8,0.4,1.2,0.7l-0.7,0.9c-0.3-0.2-0.6-0.4-1-0.5c-0.3-0.1-0.6-0.2-1-0.2s-0.6,0.1-0.8,0.2c-0.2,0.2-0.3,0.4-0.3,0.6l0,0
					c0,0.1,0,0.3,0.1,0.4c0,0.1,0.1,0.2,0.3,0.3c0.1,0.1,0.3,0.2,0.5,0.2c0.2,0.1,0.5,0.2,0.8,0.2c0.4,0.1,0.7,0.2,1,0.3
					c0.3,0.1,0.5,0.3,0.7,0.4c0.2,0.2,0.3,0.4,0.4,0.6c0.1,0.2,0.1,0.5,0.1,0.8l0,0c0,0.3-0.1,0.6-0.2,0.9c-0.1,0.3-0.3,0.5-0.5,0.7
					s-0.5,0.3-0.8,0.4C127.6,56.1,127.3,56.2,126.9,56.2z"/>
				<path class="st0" d="M132.4,49.1h1.2V52h3.4v-2.9h1.2v7h-1.3v-3h-3.4v3h-1.2L132.4,49.1L132.4,49.1z"/>
				<path class="st0" d="M141.5,49.1h5.2v1.1h-4V52h3.5v1.1h-3.5V55h4v1.1h-5.2V49.1z"/>
				<path class="st0" d="M149.7,49.1h2.6c0.5,0,1.1,0.1,1.5,0.3c0.5,0.2,0.9,0.4,1.2,0.7s0.6,0.7,0.8,1.1c0.2,0.4,0.3,0.9,0.3,1.4
					l0,0c0,0.5-0.1,1-0.3,1.4s-0.4,0.8-0.8,1.1c-0.3,0.3-0.7,0.6-1.2,0.7c-0.5,0.2-1,0.3-1.5,0.3h-2.6V49.1z M152.3,55
					c0.4,0,0.7-0.1,1-0.2s0.6-0.3,0.8-0.5s0.4-0.5,0.5-0.8s0.2-0.6,0.2-1l0,0c0-0.3-0.1-0.7-0.2-1c-0.1-0.3-0.3-0.5-0.5-0.8
					c-0.2-0.2-0.5-0.4-0.8-0.5s-0.6-0.2-1-0.2h-1.4v4.8h1.4V55z"/>
				<path class="st0" d="M164.4,50.3l-1.3,0.4l-0.3-1l1.9-0.6h0.9v7h-1.2L164.4,50.3L164.4,50.3z"/>
				<path class="st0" d="M171.1,56.2c-0.5,0-0.9-0.1-1.3-0.2c-0.4-0.2-0.7-0.4-1-0.6l0.7-0.9c0.3,0.2,0.5,0.4,0.8,0.5
					s0.5,0.2,0.8,0.2s0.5-0.1,0.7-0.2s0.4-0.3,0.5-0.5s0.3-0.4,0.3-0.7s0.1-0.6,0.1-0.9c-0.2,0.2-0.4,0.4-0.7,0.5s-0.6,0.2-1,0.2
					s-0.7-0.1-1-0.2s-0.6-0.3-0.8-0.4c-0.2-0.2-0.4-0.4-0.5-0.7c-0.1-0.3-0.2-0.6-0.2-0.9l0,0c0-0.3,0.1-0.7,0.2-1
					c0.1-0.3,0.3-0.6,0.5-0.8s0.5-0.4,0.8-0.5s0.7-0.2,1.1-0.2c0.4,0,0.8,0.1,1.1,0.2c0.3,0.1,0.6,0.3,0.8,0.6
					c0.3,0.3,0.5,0.6,0.6,1c0.2,0.4,0.2,1,0.2,1.7l0,0c0,0.6-0.1,1.1-0.2,1.5s-0.3,0.9-0.6,1.2c-0.3,0.3-0.6,0.6-0.9,0.8
					C172,56.1,171.6,56.2,171.1,56.2z M171.4,52.6c0.2,0,0.4,0,0.6-0.1s0.3-0.2,0.5-0.3c0.1-0.1,0.2-0.3,0.3-0.4s0.1-0.3,0.1-0.5
					l0,0c0-0.4-0.1-0.7-0.4-0.9c-0.3-0.2-0.6-0.4-1.1-0.4c-0.2,0-0.4,0-0.6,0.1c-0.2,0.1-0.3,0.2-0.4,0.3s-0.2,0.3-0.3,0.4
					c-0.1,0.2-0.1,0.3-0.1,0.5l0,0c0,0.4,0.1,0.7,0.4,0.9C170.6,52.5,170.9,52.6,171.4,52.6z"/>
				<path class="st0" d="M179.2,56.2c-0.5,0-0.9-0.1-1.3-0.2c-0.4-0.2-0.7-0.4-1-0.6l0.7-0.9c0.3,0.2,0.5,0.4,0.8,0.5
					s0.5,0.2,0.8,0.2s0.5-0.1,0.7-0.2s0.4-0.3,0.5-0.5s0.3-0.4,0.3-0.7s0.1-0.6,0.1-0.9c-0.2,0.2-0.4,0.4-0.7,0.5s-0.6,0.2-1,0.2
					s-0.7-0.1-1-0.2s-0.6-0.3-0.8-0.4c-0.2-0.2-0.4-0.4-0.5-0.7c-0.1-0.3-0.2-0.6-0.2-0.9l0,0c0-0.3,0.1-0.7,0.2-1
					c0.1-0.3,0.3-0.6,0.5-0.8s0.5-0.4,0.8-0.5s0.7-0.2,1.1-0.2c0.4,0,0.8,0.1,1.1,0.2c0.3,0.1,0.6,0.3,0.8,0.6
					c0.3,0.3,0.5,0.6,0.6,1c0.2,0.4,0.2,1,0.2,1.7l0,0c0,0.6-0.1,1.1-0.2,1.5s-0.3,0.9-0.6,1.2c-0.3,0.3-0.6,0.6-0.9,0.8
					C180.1,56.1,179.7,56.2,179.2,56.2z M179.5,52.6c0.2,0,0.4,0,0.6-0.1s0.3-0.2,0.5-0.3c0.1-0.1,0.2-0.3,0.3-0.4s0.1-0.3,0.1-0.5
					l0,0c0-0.4-0.1-0.7-0.4-0.9c-0.3-0.2-0.6-0.4-1.1-0.4c-0.2,0-0.4,0-0.6,0.1c-0.2,0.1-0.3,0.2-0.4,0.3s-0.2,0.3-0.3,0.4
					c-0.1,0.2-0.1,0.3-0.1,0.5l0,0c0,0.4,0.1,0.7,0.4,0.9C178.7,52.5,179,52.6,179.5,52.6z"/>
				<path class="st0" d="M187.3,56.2c-0.5,0-0.9-0.1-1.3-0.2c-0.4-0.2-0.7-0.4-1-0.6l0.7-0.9c0.3,0.2,0.5,0.4,0.8,0.5
					s0.5,0.2,0.8,0.2s0.5-0.1,0.7-0.2s0.4-0.3,0.5-0.5s0.3-0.4,0.3-0.7s0.1-0.6,0.1-0.9c-0.2,0.2-0.4,0.4-0.7,0.5s-0.6,0.2-1,0.2
					s-0.7-0.1-1-0.2s-0.6-0.3-0.8-0.4c-0.2-0.2-0.4-0.4-0.5-0.7c-0.1-0.3-0.2-0.6-0.2-0.9l0,0c0-0.3,0.1-0.7,0.2-1
					c0.1-0.3,0.3-0.6,0.5-0.8s0.5-0.4,0.8-0.5s0.7-0.2,1.1-0.2c0.4,0,0.8,0.1,1.1,0.2c0.3,0.1,0.6,0.3,0.8,0.6
					c0.3,0.3,0.5,0.6,0.6,1c0.2,0.4,0.2,1,0.2,1.7l0,0c0,0.6-0.1,1.1-0.2,1.5s-0.3,0.9-0.6,1.2c-0.3,0.3-0.6,0.6-0.9,0.8
					C188.2,56.1,187.7,56.2,187.3,56.2z M187.5,52.6c0.2,0,0.4,0,0.6-0.1s0.3-0.2,0.5-0.3c0.1-0.1,0.2-0.3,0.3-0.4s0.1-0.3,0.1-0.5
					l0,0c0-0.4-0.1-0.7-0.4-0.9c-0.3-0.2-0.6-0.4-1.1-0.4c-0.2,0-0.4,0-0.6,0.1c-0.2,0.1-0.3,0.2-0.4,0.3s-0.2,0.3-0.3,0.4
					c-0.1,0.2-0.1,0.3-0.1,0.5l0,0c0,0.4,0.1,0.7,0.4,0.9C186.7,52.5,187.1,52.6,187.5,52.6z"/>
			</g>
		</g>
	</g>
</g>
</svg>
