<?xml version="1.0" encoding="utf-8"?>
<!-- Generator: Adobe Illustrator 23.1.0, SVG Export Plug-In . SVG Version: 6.00 Build 0)  -->
<svg version="1.1" id="Layer_1" xmlns="http://www.w3.org/2000/svg" xmlns:xlink="http://www.w3.org/1999/xlink" x="0px" y="0px"
	 viewBox="0 0 2003.7 371.7" style="enable-background:new 0 0 2003.7 371.7;" xml:space="preserve">
<style type="text/css">
	.st0{fill:#FFFFFF;}
</style>
<title>Prosper Digital Logo</title>
<g>
	<g>
		<path class="st0" d="M160.6,124.5c-7.1-7.6-15.7-13.7-25.7-17.9c-10-4.3-21.3-6.4-33.5-6.4c-10.8,0-21.4,2.4-31.6,7.1
			c-8.6,3.9-15.7,9.3-21.2,15.9v-19.1H14.8v252.7h33.8V245.2c5.2,6.4,12,11.6,20.4,15.6c10.1,4.8,21,7.3,32.5,7.3
			c12.3,0,23.6-2.2,33.5-6.4c10-4.3,18.6-10.2,25.7-17.7c7.1-7.5,12.6-16.5,16.4-26.7c3.8-10.2,5.7-21.3,5.7-33.1
			c0-11.6-1.9-22.6-5.7-32.8C173.2,141.2,167.7,132.1,160.6,124.5z M97.8,132c7.6,0,14.5,1.3,20.5,3.9c6.1,2.6,11.2,6.2,15.4,10.7
			s7.5,10,9.8,16.4s3.5,13.6,3.5,21.2c0,7.6-1.2,14.7-3.5,21.2c-2.3,6.4-5.6,11.9-9.8,16.4s-9.4,8.1-15.4,10.7
			c-6.1,2.6-13,3.9-20.5,3.9c-7.6,0-14.5-1.3-20.5-3.9c-6.1-2.6-11.2-6.2-15.4-10.7s-7.5-10-9.8-16.4s-3.5-13.5-3.5-21.2
			c0-7.6,1.2-14.7,3.5-21.2c2.3-6.4,5.6-11.9,9.8-16.4s9.3-8.1,15.4-10.7C83.3,133.3,90.2,132,97.8,132z"/>
		<path class="st0" d="M276.4,102.4c-5,1.5-9.6,3.5-13.8,6c-4.2,2.5-8,5.5-11.4,9.1c-1.8,1.9-3.5,3.9-5,6.1v-19.4h-33.8v160h33.8
			v-80.3c0-16.5,3.7-28.7,10.9-36.4c7.2-7.6,17.9-11.5,31.7-11.5c2.3,0,4.6,0.2,6.9,0.6c2.4,0.4,4.8,1,7.1,1.6l2.5,0.7l1.5-36.1
			l-1.6-0.5C297,99.5,286.4,99.5,276.4,102.4z"/>
		<path class="st0" d="M462.6,124.8c-7.6-7.6-16.7-13.7-27-18c-10.3-4.4-21.5-6.6-33.4-6.6c-11.8,0-23.1,2.2-33.4,6.6
			c-10.3,4.4-19.4,10.4-27,18s-13.7,16.6-18,26.6c-4.4,10.1-6.6,21.1-6.6,32.7c0,11.6,2.2,22.7,6.6,32.9s10.4,19.1,18,26.6
			s16.7,13.5,27,17.9s21.5,6.6,33.4,6.6c11.8,0,23.1-2.2,33.4-6.6s19.3-10.4,26.9-17.9c7.6-7.5,13.7-16.5,18-26.6
			c4.4-10.2,6.6-21.2,6.6-32.9c0-11.6-2.2-22.6-6.6-32.7C476.2,141.4,470.2,132.4,462.6,124.8z M402.2,236.3
			c-7.6,0-14.5-1.3-20.5-3.9c-6.1-2.6-11.2-6.2-15.4-10.7c-4.2-4.5-7.5-10-9.8-16.4s-3.5-13.5-3.5-21.2c0-7.6,1.2-14.7,3.5-21.2
			c2.3-6.4,5.6-11.9,9.8-16.4c4.2-4.5,9.3-8.1,15.4-10.7c6.1-2.6,13-3.9,20.5-3.9c7.6,0,14.5,1.3,20.5,3.9
			c6.1,2.6,11.2,6.2,15.4,10.7s7.5,10,9.8,16.4s3.5,13.6,3.5,21.2c0,7.6-1.2,14.7-3.5,21.2c-2.3,6.4-5.6,11.9-9.8,16.4
			s-9.3,8.1-15.4,10.7C416.7,235,409.8,236.3,402.2,236.3z"/>
		<path class="st0" d="M617.5,184.2c-4.2-3.6-9.3-6.6-15.1-8.9c-5.7-2.2-11.8-4.1-18.3-5.7c-3.3-0.7-7.2-1.4-11.9-2.3
			c-4.4-0.8-8.7-2.1-12.5-3.8c-3.8-1.6-7.1-3.8-9.9-6.5c-2.6-2.5-3.8-5.6-3.8-9.7c0-4.9,2.2-8.6,6.7-11.2c4.8-2.8,10.6-4.2,17.2-4.2
			c7,0,13.1,1.4,17.9,4.2c4.9,2.8,9.1,6.3,12.4,10.5l1.3,1.6l26.1-19.8l-1-1.6c-5.9-9.5-14-16.5-24-20.6c-16.7-6.8-35.3-8-53.1-3
			c-7.3,2-14,5.1-19.7,9.2c-5.8,4.1-10.6,9.4-14.1,15.6c-3.6,6.3-5.4,13.8-5.4,22.2c0,7.8,1.4,14.4,4.2,19.7s6.5,9.7,11.1,13.2
			c4.5,3.4,9.8,6.2,15.7,8.2c5.8,2,11.9,3.8,18.4,5.3c3.3,0.7,7,1.5,11.3,2.5c4.1,1,8.1,2.2,11.8,3.8c3.6,1.5,6.6,3.6,9.2,6.3
			c2.4,2.5,3.5,5.5,3.5,9.4c0,2.9-0.8,5.3-2.4,7.5c-1.7,2.3-3.9,4.2-6.6,5.7c-2.8,1.5-6,2.7-9.6,3.4c-3.6,0.7-7.3,1.1-10.9,1.1
			c-8.1,0-15-1.8-20.6-5.3c-5.8-3.6-11.1-7.8-15.7-12.5l-1.3-1.3l-25.3,20.9l1.2,1.6c7.9,10.8,17,18.3,27,22.4
			c10,4,21.7,6.1,34.8,6.1c7.8,0,15.6-0.9,23.3-2.7c7.8-1.8,14.8-4.8,20.9-8.8c6.1-4.1,11.2-9.5,15.1-16c3.9-6.5,5.9-14.5,5.9-23.6
			c0-7.5-1.2-14-3.6-19.3C625.1,192.4,621.7,187.9,617.5,184.2z"/>
		<path class="st0" d="M805.3,124.5c-7.1-7.6-15.7-13.7-25.7-17.9c-10-4.3-21.3-6.4-33.5-6.4c-10.8,0-21.4,2.4-31.6,7.1
			c-8.5,3.9-15.7,9.3-21.2,15.9v-19.1h-33.8v252.7h33.8V245.2c5.2,6.4,12,11.6,20.4,15.6c10.1,4.8,21,7.3,32.5,7.3
			c12.3,0,23.6-2.2,33.5-6.4c10-4.3,18.6-10.2,25.7-17.7c7.1-7.5,12.6-16.5,16.4-26.7c3.8-10.2,5.7-21.3,5.7-33.1
			c0-11.6-1.9-22.6-5.7-32.8C817.9,141.2,812.4,132.1,805.3,124.5z M742.5,132c7.6,0,14.5,1.3,20.5,3.9c6.1,2.6,11.2,6.2,15.4,10.7
			s7.5,10,9.8,16.4s3.5,13.6,3.5,21.2c0,7.6-1.2,14.7-3.5,21.2c-2.3,6.4-5.6,11.9-9.8,16.4s-9.3,8.1-15.4,10.7
			c-6.1,2.6-13,3.9-20.5,3.9c-7.6,0-14.5-1.3-20.5-3.9c-6.1-2.6-11.2-6.2-15.4-10.7s-7.5-10-9.8-16.4s-3.5-13.5-3.5-21.2
			c0-7.6,1.2-14.7,3.5-21.2c2.3-6.4,5.6-11.9,9.8-16.4s9.3-8.1,15.4-10.7C728,133.3,734.9,132,742.5,132z"/>
		<path class="st0" d="M990.7,127.1c-6.3-8-14.4-14.5-24.2-19.5c-9.8-4.9-21.9-7.5-36-7.5c-11.8,0-22.9,2.2-33,6.4
			c-10.1,4.3-18.9,10.2-26.2,17.7s-13.1,16.5-17.2,26.6c-4.1,10.2-6.2,21.3-6.2,33.2c0,11.8,1.9,23,5.7,33.1
			c3.8,10.2,9.3,19.2,16.4,26.7c7.1,7.5,15.8,13.5,26,17.8s21.7,6.4,34.2,6.4c30.1,0,53.9-11,70.7-32.7l1.3-1.7L976.6,214l-1.3,1.6
			c-5.5,6.8-11.7,12.3-18.2,16.5c-6.4,4-14.1,6.1-22.9,6.1c-6.5,0-12.9-1.1-19-3.2s-11.5-5.1-16.1-8.8c-4.6-3.7-8.3-8.3-11.1-13.7
			c-2.5-4.7-3.9-9.9-4.1-15.5h124.9v-12.6c0-10.2-1.4-20.4-4.2-30.3C1001.6,144.2,997,135.1,990.7,127.1z M929.9,128
			c7.1,0,13.5,1.1,18.8,3.3c5.3,2.2,9.7,5.2,13.2,9s6.2,8.4,7.9,13.6c1.6,4.7,2.6,9.8,2.9,15.3h-89c0.3-4.3,1.3-8.7,3.2-13
			c2.2-5.1,5.3-9.8,9.3-14s8.9-7.6,14.6-10.2C916.6,129.4,923,128,929.9,128z"/>
		<path class="st0" d="M1129.4,102.3c-8.3-2.8-18.8-2.8-28.9,0.1c-5,1.5-9.6,3.5-13.8,6c-4.2,2.5-8,5.5-11.4,9.1
			c-1.8,1.9-3.5,3.9-5,6.1v-19.4h-33.8v160h33.8v-80.3c0-16.5,3.7-28.7,10.9-36.4c7.2-7.6,17.9-11.5,31.7-11.5
			c2.3,0,4.6,0.2,6.9,0.6c2.4,0.4,4.8,1,7.1,1.6l2.5,0.7l1.5-36.1L1129.4,102.3z"/>
	</g>
	<path class="st0" d="M1302.5,265V20.7h-15.6V144h-3.9l-0.6-1c-2.9-5-6.7-9.4-11-13.1c-4.5-3.7-9.3-6.8-14.5-9.3
		c-5.2-2.4-10.7-4.3-16.5-5.4c-5.8-1.2-11.5-1.8-17-1.8c-11.3,0-21.9,1.9-31.4,5.8c-9.5,3.8-17.8,9.2-24.6,16.1
		c-6.8,6.9-12.2,15.2-16,24.6c-3.8,9.5-5.8,20-5.8,31.3s1.9,21.8,5.8,31.3c3.8,9.5,9.2,17.7,16,24.6s15,12.3,24.6,16.1
		c14.2,5.7,30.8,7.6,48.5,4c5.7-1.2,11.3-3,16.5-5.4s10-5.5,14.5-9.2c4.4-3.7,8.1-8.1,11-13.1l0.6-1h3.9v26.6h15.5V265z
		 M1283.8,216.2c-3.4,7.8-8.1,14.6-13.9,20.4c-5.9,5.7-12.8,10.4-20.7,13.7c-7.9,3.4-16.6,5.1-25.8,5.1c-9.5,0-18.2-1.7-25.8-5.1
		c-7.7-3.4-14.3-8-19.7-13.8c-5.4-5.8-9.6-12.6-12.4-20.4c-2.8-7.7-4.2-16.1-4.2-24.9c0-8.8,1.4-17.1,4.2-24.9
		c2.8-7.8,7-14.7,12.4-20.4c5.4-5.8,12.1-10.4,19.8-13.8c7.7-3.4,16.4-5.1,25.8-5.1c9.2,0,17.9,1.7,25.8,5.1
		c7.9,3.4,14.8,8,20.7,13.7c5.9,5.8,10.6,12.6,13.9,20.4c3.4,7.8,5.1,16.2,5.1,25C1288.9,200,1287.2,208.4,1283.8,216.2z"/>
	<g>
		<rect x="1355.3" y="117.3" class="st0" width="15.5" height="147.7"/>
		<path class="st0" d="M1363.8,46c-2.5-2.5-5.4-3.7-9-3.7s-6.6,1.2-9,3.7c-2.5,2.5-3.7,5.4-3.7,9s1.2,6.6,3.7,9
			c2.5,2.5,5.4,3.7,9,3.7s6.6-1.2,9-3.7c2.5-2.5,3.7-5.4,3.7-9C1367.4,51.5,1366.2,48.5,1363.8,46z"/>
	</g>
	<path class="st0" d="M1568,302.1c5.3-11.3,8-26.4,8-44.8v-140h-15.5v25.6h-3.9l-0.6-1c-5.5-8.8-13-15.9-22.4-21s-20.6-7.6-33.4-7.6
		c-10.8,0-21.2,2-30.7,6.1c-9.6,4-18.1,9.6-25.2,16.4c-7.1,6.8-12.8,14.9-17,24c-4.1,9.1-6.2,19-6.2,29.4s2.1,20.3,6.2,29.4
		c4.1,9.2,9.9,17.3,17,24.2c7.1,6.9,15.6,12.4,25.2,16.3c9.6,3.9,19.9,5.9,30.8,5.9c12.7,0,24-2.6,33.4-7.6
		c9.4-5.1,16.9-12.1,22.4-21l0.6-1h3.9v23.1c0,2.9-0.1,6.6-0.3,11.3c-0.2,4.7-1,9.7-2.2,15s-3.2,10.6-5.7,15.9
		c-2.6,5.4-6.3,10.3-11,14.7c-4.7,4.4-10.7,8.1-17.8,10.8c-7.1,2.7-15.9,4.1-26.2,4.1c-12.1,0-23.6-2.4-34.4-7.1
		c-10.1-4.4-18.8-11.3-25.8-20.5l-12.3,11.5c3.6,4.3,7.7,8.2,12.4,11.6c5.2,3.8,11.1,7.1,17.5,9.8c6.4,2.7,13.3,4.7,20.5,6.1
		s14.6,2.1,22.1,2.1s15.9-1.1,25.2-3.2c9.1-2.1,17.7-6.3,25.7-12.4C1556,322.1,1562.7,313.3,1568,302.1z M1556.2,213.5
		c-3.3,7.5-7.7,14.2-13.3,19.7c-5.5,5.5-12.2,10-19.7,13.3c-7.6,3.3-15.8,4.9-24.3,4.9c-8.6,0-16.8-1.7-24.3-4.9
		c-7.6-3.3-14.2-7.7-19.7-13.3c-5.5-5.5-10-12.2-13.3-19.7c-3.3-7.6-4.9-15.8-4.9-24.3c0-8.6,1.7-16.8,4.9-24.3
		c3.3-7.5,7.7-14.2,13.3-19.7c5.5-5.5,12.2-10,19.7-13.3c15.1-6.6,33.5-6.6,48.7,0c7.5,3.3,14.2,7.7,19.7,13.3
		c5.5,5.5,10,12.2,13.3,19.7c3.3,7.6,4.9,15.8,4.9,24.3C1561.1,197.8,1559.4,206,1556.2,213.5z"/>
	<g>
		<rect x="1628.5" y="117.3" class="st0" width="15.6" height="147.7"/>
		<path class="st0" d="M1637,46c-2.5-2.5-5.4-3.7-9-3.7s-6.6,1.2-9,3.7s-3.7,5.4-3.7,9s1.2,6.6,3.7,9c2.5,2.5,5.4,3.7,9,3.7
			s6.6-1.2,9-3.7c2.5-2.5,3.7-5.4,3.7-9C1640.6,51.4,1639.4,48.5,1637,46z"/>
	</g>
	<path class="st0" d="M1771.2,251.1c-2.8,1.1-5.7,2-8.7,2.8c-4,1-8,1.5-11.9,1.5c-7.1,0-12.8-2.1-16.9-6.2s-6.2-9.9-6.2-17.3v-101
		h43.4v-13.6h-43.4V73.6h-15.6v43.7H1679v13.6h32.9v101c0,5.3,0.7,10.2,2,14.7c1.3,4.4,3.5,8.3,6.3,11.6c2.8,3.2,6.7,5.9,11.4,7.8
		c4.8,2,10.6,3,17.3,3c3.5,0,7.7-0.5,12.4-1.6c4.1-0.9,7.8-2,11.1-3L1771.2,251.1z"/>
	<path class="st0" d="M1909.3,265h14.2c-0.5-3.6-0.9-7.3-1.2-10.9c-0.3-4.4-0.6-9.1-0.8-14.2c-0.2-5.1-0.4-10.5-0.5-16.5
		c-0.1-5.9-0.2-12.6-0.2-20.1v-37.2c0-18.5-5.3-32.1-15.6-40.3c-10.5-8.3-24.9-12.5-42.8-12.5c-9.6,0-19.8,1.8-30.2,5.3
		c-9.7,3.3-18,8-24.7,14.1l8.9,10.4c13.3-10.8,28.8-16.3,46.1-16.3c12.6,0,23.3,3,31.8,8.9c8.7,6.1,13.1,16.2,13.1,30V177h-25.2
		c-7.3,0-16,0.5-25.6,1.5c-9.5,1-18.6,3.1-27.1,6.4c-8.3,3.3-15.4,8.2-21.1,14.7c-5.6,6.4-8.4,15.2-8.4,26.2
		c0,7.7,1.5,14.3,4.5,19.7c3,5.4,6.9,9.9,11.7,13.3c4.8,3.5,10.3,6,16.4,7.6c6.2,1.6,12.5,2.4,18.9,2.4c12.5,0,23-2.2,31.1-6.7
		c8.1-4.4,14.9-11.4,20.4-20.9l0.6-1h3.9v2.1C1907.6,250.6,1908.2,258.2,1909.3,265z M1907.3,201c0,6.5-0.8,13-2.4,19.4
		c-1.6,6.5-4.6,12.5-8.8,17.6c-4.2,5.2-10,9.4-17,12.6s-16,4.8-26.8,4.8c-4.4,0-8.7-0.6-12.9-1.9c-4.2-1.3-8.2-3.1-11.6-5.6
		c-3.5-2.5-6.4-5.7-8.7-9.5c-2.3-3.9-3.4-8.4-3.4-13.4c0-7.1,2-13,6.1-17.8c3.9-4.6,9.2-8.3,15.7-11.1c6.4-2.7,13.6-4.6,21.6-5.7
		c7.9-1.1,16.1-1.7,24.5-1.7h23.8L1907.3,201L1907.3,201z"/>
	<rect x="1977.6" y="20.7" class="st0" width="15.5" height="244.4"/>
</g>
</svg>
