<?xml version="1.0" encoding="utf-8"?>
<!-- Generator: Adobe Illustrator 24.0.2, SVG Export Plug-In . SVG Version: 6.00 Build 0)  -->
<svg version="1.1" id="Logo" xmlns="http://www.w3.org/2000/svg" xmlns:xlink="http://www.w3.org/1999/xlink" x="0px" y="0px"
	 viewBox="0 0 246.1 268.5" style="enable-background:new 0 0 246.1 268.5;" xml:space="preserve">
<style type="text/css">
	.st0{fill:#FFFFFF;}
</style>
<g>
	<path class="st0" d="M203.6,232c-3.2-0.4-16.9-3.4-28.5,8.1c-9.4,9.4-20.5,20.1-20.5,20.1h12.6c0,0,1.5-1.6,4.7-4.8h13.1l-1.1,4.8
		h13L203.6,232z M186.7,248.3h-8c0.4-0.4,0.8-0.8,1.2-1.3c7.8-8.4,9.1-7.8,9.1-7.8L186.7,248.3z"/>
	<path class="st0" d="M86.7,232c-3.2-0.4-16.9-3.4-28.4,8.1c-9.4,9.4-20.5,20.1-20.5,20.1h12.6c0,0,1.5-1.6,4.7-4.8h13.1l-1.1,4.8
		h13L86.7,232z M69.9,248.3h-8c0.4-0.4,0.8-0.8,1.2-1.3c7.8-8.4,9.1-7.8,9.1-7.8L69.9,248.3z"/>
	<path class="st0" d="M132.5,231.7c-5.3,0-9,2-11.4,6.1l-4.5,8l-6.4-14.1l-2.5,0c-5.3,0-10.8,3.8-13.3,8.2l-12,20.3h12.3l8.1-13.9
		l6.2,13.9h11.1l16.5-28.5L132.5,231.7z"/>
	<path class="st0" d="M33,231.1c-15.6,0-25.5,8-29.7,15.3c-4,7-0.1,15.5,14.9,14.8c0,0,3.1,3.9,9.3,4.2c6.3,0.2,10.1-5.1,10.1-5.1
		s-2.1,0.7-4.4,0.4c-2.9-0.3-3.9-2-3.9-2c8.3-3.4,13-7.8,15.6-12.3C49.2,239.1,48.6,231.1,33,231.1z M30,246.3
		c-3.2,4.7-6.7,8.1-11.2,7.9c-5.4-0.3-3.8-4.2-1-8c3.3-4.6,7.5-8.6,12-8.4C35.2,238,33.2,241.5,30,246.3z"/>
	<path class="st0" d="M147,231.7c-5.4,0-9.2,2.4-10.9,5.3l-1.4,2.4H147l-12.1,20.8h13.5l12.1-20.8l3.7-0.1c4.9,0,9.2-2.4,10.9-5.3
		l1.3-2.3L147,231.7z"/>
	<path class="st0" d="M224.3,240.7c9.7,2.7,13.9,5.1,13.4,9.5c-0.8,6.5-10.3,10.9-22,10.7c-11.7-0.2-17.1-4.2-17.1-4.2l7.2-5.9
		c0,0,5.1,2.7,12,2.8c4.4,0.1,5-1,5.1-1.3c0.3-0.9-1-1.3-4-2.3c-6.1-2-12.1-4-11.5-9.6c0.8-6.7,11.6-9.7,20.9-9.4
		c6.5,0.2,13,2.5,13,2.5c-2.6,4.6-7,5.2-8.6,5.2c-2.2,0-4-0.5-7.4-0.6c-2.7-0.1-3.6,1.1-3.2,1.7
		C222.6,240.2,223.1,240.4,224.3,240.7z"/>
</g>
<path class="st0" d="M5.2,2.4l0,56c0.1,1.7,0.4,5.2,1,7.1c9.4,29.4,62.6,17.8,97.2,67.3c0,0,6.6,0.7,11-7.3c0,0-9.2-0.7-9.7-7.6
	c0,0,18.8,3.8,30.1,12.9c0,0,0.2,4.1-13,4.2c-2.6,0.2-3.7,0.3-7.9,4.4c0,0-10.5,11.5-21.3,11.3c-3.3-0.1-5.8-1.4-5.9-2.3
	c0,0-0.4-1.4,2-0.9c0,0,5.7,1.5,8.4-0.9c0,0-2.4-3.5-6.7-3.5c-2.6-0.1-5.3,0.7-7,3c0,0-8.5,10.7,15.8,22c35.3,15.4,54.9,38.1,52,44
	c-3.4-2.5-32.1-38.1-81.5-42.2c0,0,0.3-0.8,0.5-1.8c5.2-24.7-6.3-41.4-19.3-51C37.8,106.7,12.8,97.9,5.2,74.4l0,144.5l235.4,0
	L5.2,2.4z"/>
</svg>
