<svg width="85" height="43" viewBox="0 0 85 43" fill="none" xmlns="http://www.w3.org/2000/svg">
    <path d="M63.797 0.359375C52.2051 0.359375 42.811 9.85073 42.811 21.555C42.811 33.2593 52.2085 42.7506 63.797 42.7506C75.3855 42.7506 84.7829 33.2593 84.7829 21.555C84.7829 9.85073 75.3889 0.359375 63.797 0.359375ZM63.773 30.8112C58.7131 30.8112 54.6084 26.6689 54.6084 21.555C54.6084 16.4445 58.7097 12.2988 63.773 12.2988C68.8363 12.2988 72.9377 16.4411 72.9377 21.555C72.9377 26.6689 68.8329 30.8112 63.773 30.8112Z" fill="white"></path>
    <path d="M24.4745 1.35547H21.1058H21.0921H21.0818H17.7131L0 41.9764H13.1119L21.0921 20.9571L29.0756 41.9764H42.1876L24.4745 1.35547Z" fill="white"></path>
</svg>