<svg id="Layer_1" data-name="Layer 1" xmlns="http://www.w3.org/2000/svg" viewBox="0 0 310.56 103.65"><defs><style>.cls-1{fill:#ffffff;}</style></defs><title>Breathe_masthead</title><path class="cls-1" d="M21.78,83.94C26.3,83.43,29,81.32,29,77.7V29.64c0-4.83-.5-5.83-8.24-7.34V19.79H44.3c16.89,0,23.43,6.74,23.43,14.68,0,7.54-5.83,13.07-12,16.49,4.73,1,16.89,4.63,16.89,16.89,0,10.66-9.15,19-27.25,19h-9c-5,0-14.58.3-14.58,0.3V83.94Zm22-1c15.38,0,18.7-6.74,18.7-13.57,0-15.58-16.89-15.08-20.91-15.08H38.87l-1,1V77.4a31.5,31.5,0,0,1-.5,5.53h6.43Zm4.42-32.58c5-.3,9.65-7.54,9.65-14,0-5.93-3.92-12.67-14.28-12.67H38.87l-1,1V50.36H48.22Z" transform="translate(-20.77 -12.55)"/><path class="cls-1" d="M78.38,84.24c4.52-.5,6.23-2.92,6.23-6.53V53.27c0-4.32-.1-6.84-3-6.84H77.07V43.72A94.85,94.85,0,0,0,93.36,39l0.3,0.3s-0.9,3.32-1.21,12.77c3-5.63,8.35-11.66,13.57-11.66,2.41,0,5.43,1.21,5.43,4.63A4.65,4.65,0,0,1,106.73,50c-2.31,0-2.61-1.71-4.93-1.71-3.42,0-6.74,3.32-8.95,5.83V77.7a29.61,29.61,0,0,1-.5,5.43L101.9,84l-0.4,2.51-23.12.6V84.24Z" transform="translate(-20.77 -12.55)"/><path class="cls-1" d="M134.88,40.4c8.65,0,17.19,5.63,17.49,16.69a27.09,27.09,0,0,1-4.62,1.31l-25,3.62-1,1.21c0.4,9.15,5,18.1,16.29,18.1a19.49,19.49,0,0,0,13.07-4.83l1.11,2.11A20.15,20.15,0,0,1,135,88.06c-14.28,0-21.31-11.16-21.31-22.92C113.67,51.46,122.72,40.4,134.88,40.4Zm-13,18L143,55.68s-0.8-11.46-9.65-11.46C126.64,44.22,122.82,50.86,121.91,58.4Z" transform="translate(-20.77 -12.55)"/><path class="cls-1" d="M180.62,61.62l3.42-.5a67,67,0,0,0-.4-10.76c-0.7-3.72-2.61-6.43-6.33-6.43-6.84,0-10.66,9.65-10.66,9.65h-3.22L161.72,46a32.77,32.77,0,0,1,18.6-5.63c9.45,0,12,3.82,12,14.38V77.9c0,3.22.4,4.73,2.71,4.73a11.34,11.34,0,0,0,5.53-2l1.31,2.11s-4.73,5.33-10.66,5.33c-3.82,0-6.84-2.21-6.84-7.14V78.51s-5.33,9.55-15.68,9.55c-6.64,0-10.46-4.73-10.46-10.15C158.2,68.25,170.17,63.23,180.62,61.62ZM184,76.3V64.43l-3.12.5c-5.73.91-13.87,3.92-13.87,11.16,0,4,2.61,6.23,5.63,6.23C176.6,82.33,181.43,78.51,184,76.3Z" transform="translate(-20.77 -12.55)"/><path class="cls-1" d="M208.27,53.27c0-2.92.3-6.54,0.3-6.54h-6.64v-3s4.42-.9,6.84-3.12l3.72-11,4.52,0.1,0.3,0.3s-0.9,2.92-.9,10.05v1.51H232.1l-0.7,4.83H217.52l-1,1V73c0,5.83,1.71,9,7,9a24.7,24.7,0,0,0,9-2.11l1.31,1.91s-5.73,6.23-14.48,6.23c-7.14,0-11.16-4-11.16-13.17V53.27Z" transform="translate(-20.77 -12.55)"/><path class="cls-1" d="M237.73,84.24c4.52-.5,6.23-2.92,6.23-6.53V26.63c0-4.32-.1-6.84-3-6.84h-4.22V17.08c11.56-2.51,16.19-4.52,16.19-4.52l0.3,0.3s-1,3.72-1,11.46v19.5c0,4.63-.4,6.64-0.4,7.44,3.62-5.23,10.66-10.86,19.1-10.86,6.94,0,11.46,3.82,11.46,13.57V77.7a29.61,29.61,0,0,1-.5,5.43L290.41,84,290,86.55l-21.62.6V84.24c4.12-.5,5.73-2.92,5.73-6.53V56.19c0-7.64-2.92-9.65-6.94-9.65-4.62,0-10.76,2.81-15,6.84V77.7a29.61,29.61,0,0,1-.5,5.43l8,0.91-0.4,2.51-21.62.6V84.24Z" transform="translate(-20.77 -12.55)"/><path class="cls-1" d="M313.83,40.4c8.65,0,17.19,5.63,17.49,16.69a27.11,27.11,0,0,1-4.62,1.31l-25,3.62-1,1.21c0.4,9.15,5,18.1,16.29,18.1A19.49,19.49,0,0,0,330,76.5l1.11,2.11a20.15,20.15,0,0,1-17.19,9.45c-14.28,0-21.31-11.16-21.31-22.92C292.62,51.46,301.67,40.4,313.83,40.4Zm-13,18L322,55.68s-0.8-11.46-9.65-11.46C305.59,44.22,301.77,50.86,300.86,58.4Z" transform="translate(-20.77 -12.55)"/><path class="cls-1" d="M22.34,108.8c0-2.85,2.15-6.93,5.89-6.93,0.94,0,1.64.25,2.42,0.25a2.93,2.93,0,0,0,.59-0.06l0,0.06a8.87,8.87,0,0,0-.64,2.11l-0.92,4.2a10.71,10.71,0,0,0-.29,1.54,0.41,0.41,0,0,0,.43.47,2.48,2.48,0,0,0,1.25-.66l0.08,0.59a3.75,3.75,0,0,1-2.42,1.21,0.91,0.91,0,0,1-1-1.09,7.18,7.18,0,0,1,.27-1.62h0s-1.6,2.71-3.59,2.71C23.29,111.58,22.34,110.7,22.34,108.8Zm6.44-3.32,0.55-2.5a2.4,2.4,0,0,0-1.29-.43c-1.89,0-3.9,3.06-3.9,6.07,0,1.35.43,1.74,1,1.74C26.77,110.35,28.31,107.65,28.78,105.47Z" transform="translate(-20.77 -12.55)"/><path class="cls-1" d="M35,103.65a0.47,0.47,0,0,0-.49-0.55H33.68v-0.55a9.6,9.6,0,0,0,3.12-.92l0.06,0.06a13.41,13.41,0,0,1-.59,3.1h0c0.74-1.23,2.36-2.91,4.16-2.91a1.61,1.61,0,0,1,1.72,1.78c0,1.48-1.17,5.56-1.17,6.34a0.41,0.41,0,0,0,.41.45,2.79,2.79,0,0,0,1.27-.66l0.08,0.59a4,4,0,0,1-2.36,1.21,1,1,0,0,1-1.09-1c0-1,1.19-5.23,1.19-6.46a0.81,0.81,0,0,0-.9-0.92c-1.78,0-3.42,2.4-3.73,3.88l-0.23,1a18,18,0,0,0-.49,3.24l-1.66.14C33.52,109.72,35,104.41,35,103.65Z" transform="translate(-20.77 -12.55)"/><path class="cls-1" d="M44.69,108.78c0-2.85,2.17-6.91,6.11-6.91a5.72,5.72,0,0,1,1.31.14l0.57-2.65a8.09,8.09,0,0,0,.18-1c0-.39-0.16-0.66-0.8-0.66H51.56V97.11a10.77,10.77,0,0,0,3.16-.88l0.06,0.06a23.71,23.71,0,0,1-.53,3.24l-2,8.9A7.83,7.83,0,0,0,52,110a0.41,0.41,0,0,0,.41.47,2.38,2.38,0,0,0,1.27-.66l0.08,0.59a4.05,4.05,0,0,1-2.38,1.21,0.93,0.93,0,0,1-1-1.09,7.72,7.72,0,0,1,.25-1.62h0s-1.54,2.71-3.69,2.71C45.72,111.58,44.69,110.76,44.69,108.78Zm6.64-3.3,0.37-1.72a0.9,0.9,0,0,0-1-1.17c-2.05,0-4.18,3-4.18,6,0,1.37.49,1.76,1.13,1.76C49.27,110.35,50.84,107.81,51.34,105.47Z" transform="translate(-20.77 -12.55)"/><path class="cls-1" d="M63.25,103.65a0.47,0.47,0,0,0-.49-0.55H61.91v-0.55a9.6,9.6,0,0,0,3.12-.92l0.06,0.06a13.41,13.41,0,0,1-.59,3.1h0c0.74-1.23,2.32-2.91,4-2.91a1.57,1.57,0,0,1,1.68,1.72,6.12,6.12,0,0,1-.14,1h0c0.78-1.23,2.3-2.77,3.9-2.77a1.6,1.6,0,0,1,1.74,1.78c0,1.48-1.17,5.56-1.17,6.34a0.41,0.41,0,0,0,.41.45,2.79,2.79,0,0,0,1.27-.66l0.08,0.59A4,4,0,0,1,74,111.58a1,1,0,0,1-1.09-1c0-1,1.19-5.25,1.19-6.44a0.82,0.82,0,0,0-.9-0.94c-1.64,0-3.24,2.44-3.55,3.86l-0.25,1.11a18.73,18.73,0,0,0-.47,3.2l-1.66.14c0-2.05,1.29-6.17,1.29-7.36a0.8,0.8,0,0,0-.86-0.94c-1.7,0-3.28,2.54-3.57,3.88l-0.23,1a18,18,0,0,0-.49,3.24l-1.66.14C61.75,109.72,63.25,104.41,63.25,103.65Z" transform="translate(-20.77 -12.55)"/><path class="cls-1" d="M78.3,108.8c0-2.85,2.15-6.93,5.89-6.93,0.94,0,1.64.25,2.42,0.25A2.93,2.93,0,0,0,87.2,102l0,0.06a8.87,8.87,0,0,0-.64,2.11l-0.92,4.2a10.71,10.71,0,0,0-.29,1.54,0.41,0.41,0,0,0,.43.47,2.48,2.48,0,0,0,1.25-.66l0.08,0.59a3.75,3.75,0,0,1-2.42,1.21,0.91,0.91,0,0,1-1-1.09,7.18,7.18,0,0,1,.27-1.62h0s-1.6,2.71-3.59,2.71C79.24,111.58,78.3,110.7,78.3,108.8Zm6.44-3.32,0.55-2.5a2.4,2.4,0,0,0-1.29-.43c-1.89,0-3.9,3.06-3.9,6.07,0,1.35.43,1.74,1,1.74C82.73,110.35,84.26,107.65,84.74,105.47Z" transform="translate(-20.77 -12.55)"/><path class="cls-1" d="M89.61,108.55l2.07-9.29a5.36,5.36,0,0,0,.16-0.94c0-.39-0.16-0.66-0.8-0.66H90.54V97.11a10.77,10.77,0,0,0,3.16-.88l0.06,0.06a25.15,25.15,0,0,1-.53,3.24l-1.42,6.34h0.37l1.89-.74c1.15-.45,1.64-1,1.64-1.54a0.71,0.71,0,0,0-.88-0.66H94.54v-0.55l2.56-.45L97.16,102a1.74,1.74,0,0,1,.08.64c0,1.13-.53,2.11-2.69,3l-1,.39v0.18c1,1.19,2,4.27,2.93,4.27a3,3,0,0,0,1.15-.64l0.08,0.59a4.23,4.23,0,0,1-2.13,1.21c-1.6,0-2.48-3.67-3.59-5H91.66l-0.35,1.56a18,18,0,0,0-.49,3.24l-1.66.14A15.45,15.45,0,0,1,89.61,108.55Z" transform="translate(-20.77 -12.55)"/><path class="cls-1" d="M104.79,101.86c0.94,0,2,.37,2,1.58,0,2.38-3.88,3.42-5.25,3.71l-0.23.25c-0.08,1.7.59,2.89,2.24,2.89a4.54,4.54,0,0,0,2.34-.9l0,0.55a4.62,4.62,0,0,1-3.4,1.64c-2,0-3-1.62-3-3.49C99.52,105.27,101.9,101.86,104.79,101.86Zm0.37,1.83a0.89,0.89,0,0,0-.78-1.11c-1.21,0-2.52,2-2.93,4C102.22,106.38,105.16,105.66,105.16,103.69Z" transform="translate(-20.77 -12.55)"/><path class="cls-1" d="M114.54,108.84l0.9-4.33c0.12-.62.33-1.33,0.33-1.33h-1.23l0.06-.64a3.54,3.54,0,0,0,1.39-.62,5.94,5.94,0,0,0,.74-1.95l1-.29a11.66,11.66,0,0,1-.31,2.42h2.89l-0.27,1h-2.58l-0.25.18-1,5.19a3.83,3.83,0,0,0-.08.72,1,1,0,0,0,.94,1.17,4,4,0,0,0,2.15-.94l0.08,0.59a4.63,4.63,0,0,1-3.08,1.58,1.7,1.7,0,0,1-1.78-1.95A3.53,3.53,0,0,1,114.54,108.84Z" transform="translate(-20.77 -12.55)"/><path class="cls-1" d="M123.38,103.79a0.65,0.65,0,0,0-.8-0.7h-0.47v-0.55a9.26,9.26,0,0,0,3.12-.92l0.06,0.06c0,1.7-1.56,7.49-1.56,8.26a0.41,0.41,0,0,0,.41.49,2.79,2.79,0,0,0,1.27-.66l0.08,0.59a4,4,0,0,1-2.38,1.21,1,1,0,0,1-1.07-1.11C122,109.37,123.38,104.51,123.38,103.79ZM124,99a1.33,1.33,0,0,1,1.29-1.39,0.72,0.72,0,0,1,.82.8,1.34,1.34,0,0,1-1.29,1.42A0.74,0.74,0,0,1,124,99Z" transform="translate(-20.77 -12.55)"/><path class="cls-1" d="M129.29,103.65a0.47,0.47,0,0,0-.49-0.55H128v-0.55a9.6,9.6,0,0,0,3.12-.92l0.06,0.06a13.41,13.41,0,0,1-.59,3.1h0c0.74-1.23,2.32-2.91,4-2.91a1.57,1.57,0,0,1,1.68,1.72,6.12,6.12,0,0,1-.14,1h0c0.78-1.23,2.3-2.77,3.9-2.77a1.6,1.6,0,0,1,1.74,1.78c0,1.48-1.17,5.56-1.17,6.34a0.41,0.41,0,0,0,.41.45,2.79,2.79,0,0,0,1.27-.66l0.08,0.59a4,4,0,0,1-2.36,1.21,1,1,0,0,1-1.09-1c0-1,1.19-5.25,1.19-6.44a0.82,0.82,0,0,0-.9-0.94c-1.64,0-3.24,2.44-3.55,3.86l-0.25,1.11a18.73,18.73,0,0,0-.47,3.2l-1.66.14c0-2.05,1.29-6.17,1.29-7.36a0.8,0.8,0,0,0-.86-0.94c-1.7,0-3.28,2.54-3.57,3.88l-0.23,1a18,18,0,0,0-.49,3.24l-1.66.14C127.79,109.72,129.29,104.41,129.29,103.65Z" transform="translate(-20.77 -12.55)"/><path class="cls-1" d="M149.56,101.86c0.94,0,2,.37,2,1.58,0,2.38-3.88,3.42-5.25,3.71l-0.23.25c-0.08,1.7.59,2.89,2.24,2.89a4.54,4.54,0,0,0,2.34-.9l0,0.55a4.62,4.62,0,0,1-3.4,1.64c-2,0-3-1.62-3-3.49C144.29,105.27,146.67,101.86,149.56,101.86Zm0.37,1.83a0.89,0.89,0,0,0-.78-1.11c-1.21,0-2.52,2-2.93,4C147,106.38,149.93,105.66,149.93,103.69Z" transform="translate(-20.77 -12.55)"/><path class="cls-1" d="M159.24,102.54l1.35-.45c0.47-3.06,1.54-5.68,4.72-5.68,1,0,2,.31,2,1.11a0.82,0.82,0,0,1-.82.8c-0.66,0-1-1-2.09-1-1.7,0-1.85,2.17-2.19,4.76h2.63l-0.27,1H162.3l-0.25.16c-0.7,5-1.11,12.47-5.54,12.94l-0.14-.49c2.87-1,3.51-8.1,4.08-12.53H159.2Z" transform="translate(-20.77 -12.55)"/><path class="cls-1" d="M170.48,101.86a3.13,3.13,0,0,1,3.4,3.47c0,2.65-1.91,6.25-5.46,6.25-2.38,0-3.4-1.6-3.4-3.59C165,105.31,166.89,101.86,170.48,101.86Zm-2,9c2.26,0,3.57-3.4,3.57-5.89,0-1.37-.39-2.48-1.7-2.48-2.24,0-3.55,3.24-3.55,5.84C166.83,109.78,167.2,110.91,168.51,110.91Z" transform="translate(-20.77 -12.55)"/><path class="cls-1" d="M177.51,103.65a0.47,0.47,0,0,0-.49-0.55h-0.84v-0.55a9.6,9.6,0,0,0,3.12-.92l0.06,0.06a13.41,13.41,0,0,1-.59,3.1h0c0.78-1.44,2-2.91,3-2.91a1,1,0,1,1,0,1.91c-0.37,0-.51-0.18-0.86-0.18-0.92,0-2.26,2.36-2.5,3.47l-0.23,1a20,20,0,0,0-.49,3.24l-1.66.14C176,109.72,177.51,104.41,177.51,103.65Z" transform="translate(-20.77 -12.55)"/><path class="cls-1" d="M187.08,114.5c1.27,0,2-.66,3.06-1.83l0.31-.37a2.16,2.16,0,0,0,.37-1.27,32,32,0,0,0-.74-7.34,0.79,0.79,0,0,0-.88-0.59h-0.37v-0.55a9.33,9.33,0,0,0,2.67-.92l0.08,0a57.32,57.32,0,0,1,.72,8.2c1.91-2.73,3.49-5.6,3.49-6.38a0.62,0.62,0,0,0-.72-0.53v-0.51l2.52-.57,0.06,0.12a15.48,15.48,0,0,1-1.09,2.19c-0.57,1-4.31,7.79-7.87,11.09a2.59,2.59,0,0,1-1.7.92,0.83,0.83,0,0,1-.9-0.84A0.88,0.88,0,0,1,187.08,114.5Z" transform="translate(-20.77 -12.55)"/><path class="cls-1" d="M203.49,101.86a3.13,3.13,0,0,1,3.4,3.47c0,2.65-1.91,6.25-5.46,6.25-2.38,0-3.4-1.6-3.4-3.59C198,105.31,199.9,101.86,203.49,101.86Zm-2,9c2.26,0,3.57-3.4,3.57-5.89,0-1.37-.39-2.48-1.7-2.48-2.24,0-3.55,3.24-3.55,5.84C199.84,109.78,200.2,110.91,201.52,110.91Z" transform="translate(-20.77 -12.55)"/><path class="cls-1" d="M210.41,103.65a0.46,0.46,0,0,0-.49-0.55H209.2v-0.57a9.26,9.26,0,0,0,3-.9l0.06,0.06c0,1.58-1.42,6.64-1.42,7.59a0.87,0.87,0,0,0,.86,1.09c1.64,0,3.3-2.56,3.67-4.29a21.91,21.91,0,0,0,.64-3.86l1.66-.27c0,1.76-1.48,7.2-1.48,8a0.42,0.42,0,0,0,.45.47,2.47,2.47,0,0,0,1.23-.66l0.08,0.59a3.64,3.64,0,0,1-2.4,1.21,0.9,0.9,0,0,1-1-1.07,8,8,0,0,1,.23-1.6h0c-0.82,1.27-2.19,2.67-3.79,2.67a1.68,1.68,0,0,1-1.74-2C209.25,108.39,210.41,104.49,210.41,103.65Z" transform="translate(-20.77 -12.55)"/><path class="cls-1" d="M221.81,103.65a0.47,0.47,0,0,0-.49-0.55h-0.84v-0.55a9.6,9.6,0,0,0,3.12-.92l0.06,0.06a13.41,13.41,0,0,1-.59,3.1h0c0.78-1.44,2-2.91,3-2.91a1,1,0,1,1,0,1.91c-0.37,0-.51-0.18-0.86-0.18-0.92,0-2.26,2.36-2.5,3.47l-0.23,1a20,20,0,0,0-.49,3.24l-1.66.14C220.32,109.72,221.81,104.41,221.81,103.65Z" transform="translate(-20.77 -12.55)"/><path class="cls-1" d="M228,109.55c1,0,.94,1.35,2.11,1.35a1.5,1.5,0,0,0,1.52-1.56c0-2-3.08-2.09-3.08-4.61,0-1.87,1.64-2.87,3.51-2.87,0.64,0,2,.12,2,1a0.77,0.77,0,0,1-.8.8c-0.88,0-.8-1.13-1.87-1.13a1.43,1.43,0,0,0-1.44,1.52c0,1.91,3.12,2,3.12,4.61,0,1.91-1.7,2.91-3.49,2.91-0.92,0-2.38-.29-2.38-1.21A0.79,0.79,0,0,1,228,109.55Z" transform="translate(-20.77 -12.55)"/><path class="cls-1" d="M240.64,101.86c0.94,0,2,.37,2,1.58,0,2.38-3.88,3.42-5.25,3.71l-0.23.25c-0.08,1.7.59,2.89,2.24,2.89a4.54,4.54,0,0,0,2.34-.9l0,0.55a4.62,4.62,0,0,1-3.4,1.64c-2,0-3-1.62-3-3.49C235.37,105.27,237.74,101.86,240.64,101.86Zm0.37,1.83a0.89,0.89,0,0,0-.78-1.11c-1.21,0-2.52,2-2.93,4C238.07,106.38,241,105.66,241,103.69Z" transform="translate(-20.77 -12.55)"/><path class="cls-1" d="M244.57,108.73l2.11-9.47a5.36,5.36,0,0,0,.16-0.94c0-.39-0.16-0.66-0.8-0.66h-0.51V97.11a10.77,10.77,0,0,0,3.16-.88l0.06,0.06a25.15,25.15,0,0,1-.53,3.24l-2.07,9.31a6.53,6.53,0,0,0-.18,1.11,0.41,0.41,0,0,0,.41.49,2.53,2.53,0,0,0,1.27-.66l0.08,0.59a4,4,0,0,1-2.38,1.21,1,1,0,0,1-1.07-1.11A10,10,0,0,1,244.57,108.73Z" transform="translate(-20.77 -12.55)"/><path class="cls-1" d="M250.13,102.54l1.35-.45C252,99,253,96.41,256.2,96.41c1,0,2,.31,2,1.11a0.82,0.82,0,0,1-.82.8c-0.66,0-1-1-2.09-1-1.7,0-1.85,2.17-2.19,4.76h2.63l-0.27,1h-2.28l-0.25.16c-0.7,5-1.11,12.47-5.54,12.94l-0.14-.49c2.87-1,3.51-8.1,4.08-12.53h-1.25Z" transform="translate(-20.77 -12.55)"/></svg>