<svg id="Layer_1" data-name="Layer 1" xmlns="http://www.w3.org/2000/svg" viewBox="0 0 120.6 28.1"><defs><style>.cls-1{fill:#fff;}</style></defs><title>meir</title><path class="cls-1" d="M117.9,21.3a2.8,2.8,0,1,0,2.7,2.8,2.71,2.71,0,0,0-2.7-2.8" transform="translate(0 0.1)"/><path id="r" class="cls-1" d="M117.3,3.8A3.17,3.17,0,0,0,116,1.2a5.29,5.29,0,0,0-3-.9,6.09,6.09,0,0,0-2.8.6A7.23,7.23,0,0,0,108,2.6,10,10,0,0,0,106.4,5a13.32,13.32,0,0,0-1,2.8V-.1a1.54,1.54,0,0,1-1.5,1.5H95.4v1h3.5a1.49,1.49,0,0,1,1.3,1.3V24.3a1.7,1.7,0,0,1-1.4,1.4H95.4v1h15.5v-1h-4.2a1.43,1.43,0,0,1-1.4-1.4V14.5c0-1.4,0-2.6.1-3.6a13.89,13.89,0,0,1,.9-3.5,10.67,10.67,0,0,1,.9-1.9,13.3,13.3,0,0,1,1.4-1.9,8,8,0,0,1,1.7-1.5,3.53,3.53,0,0,1,1.9-.6h.3a3,3,0,0,0-1.1,2.4,2.93,2.93,0,0,0,2.9,3,3,3,0,0,0,3-3.1" transform="translate(0 0.1)"/><path id="i" class="cls-1" d="M89.3,24.5V0a1.54,1.54,0,0,1-1.5,1.5H78.9v1h3.6A1.6,1.6,0,0,1,83.9,4V24.3a1.54,1.54,0,0,1-1.5,1.5H78.9v1H94.3v-1H90.8a1.51,1.51,0,0,1-1.5-1.3" transform="translate(0 0.1)"/><path id="e" class="cls-1" d="M58.8,6.9a9.39,9.39,0,0,1,.8-3.1,4.84,4.84,0,0,1,1.9-2.1A7,7,0,0,1,65,.9a6.08,6.08,0,0,1,3.2.7,6.06,6.06,0,0,1,1.9,2,8.22,8.22,0,0,1,.8,2.9c.1,1.1.2,2.2.2,3.3,0,.4-.1.6-.2.6s-.4.1-.7.1H58.6c0-1.2.1-2.4.2-3.6M76,20.7A9.63,9.63,0,0,1,74.4,23a10.86,10.86,0,0,1-8.5,3.9,8.81,8.81,0,0,1-3.3-.6,5.56,5.56,0,0,1-2.7-2.1,4.61,4.61,0,0,1-.9-1.7,11.8,11.8,0,0,1-.4-2,14.77,14.77,0,0,1-.1-2.1v-2a20.9,20.9,0,0,1,.1-2.5c0-.8.1-1.6.1-2.5H77.2c.2,0,.3-.1.3-.4a2,2,0,0,0-.1-.7c-.1-.3-.2-.6-.3-1s-.3-.7-.4-1a2.39,2.39,0,0,0-.3-.7A13.44,13.44,0,0,0,72,2a12.57,12.57,0,0,0-6.8-2,9.22,9.22,0,0,0-4.9,1.3,16,16,0,0,0-4,3.3,17.42,17.42,0,0,0-2.7,4.6,13.72,13.72,0,0,0-1,5.2,13.22,13.22,0,0,0,1.1,5.3A13,13,0,0,0,56.6,24a14.17,14.17,0,0,0,4.3,2.9A12.74,12.74,0,0,0,66.1,28a11,11,0,0,0,7.5-2.7,12.9,12.9,0,0,0,4.2-7l-1-.2a13.39,13.39,0,0,1-.8,2.6" transform="translate(0 0.1)"/><path id="m" class="cls-1" d="M45.6,24.6V10.3c0-1.1,0-2.2-.1-3.3a7.08,7.08,0,0,0-1-3.1,6.43,6.43,0,0,0-3.2-2.7A11.5,11.5,0,0,0,37.2.4a10,10,0,0,0-5.9,1.8,10.29,10.29,0,0,0-3.7,5.1q-.45-3.75-2.4-5.4A8.68,8.68,0,0,0,19.6.3a11.48,11.48,0,0,0-3.1.4A9,9,0,0,0,13.7,2a11.5,11.5,0,0,0-2.3,2.1A7.61,7.61,0,0,0,9.9,6.9V0A1.54,1.54,0,0,1,8.4,1.5H0V2.6H3.4A1.45,1.45,0,0,1,4.8,4.1V24.3a1.45,1.45,0,0,1-1.4,1.5H0v1H14.7v-1H11.4A1.49,1.49,0,0,1,10,24.5V9a4.18,4.18,0,0,1,.3-.9,4.18,4.18,0,0,0,.3-.9A13.36,13.36,0,0,1,13.9,3a7.42,7.42,0,0,1,4.9-1.8,3.56,3.56,0,0,1,2.9,1.2,4.45,4.45,0,0,1,1,3.1V24.3a1.5,1.5,0,0,1-1.4,1.4H17.7v1H32.6v-1H29.2a1.45,1.45,0,0,1-1.4-1.5V10.1a6,6,0,0,1,.6-2.4,10.84,10.84,0,0,1,1.2-2.2,10.65,10.65,0,0,1,2.8-2.8,7,7,0,0,1,3.7-1.1A3.7,3.7,0,0,1,39.4,3a6.63,6.63,0,0,1,.9,3.6V24.4a1.45,1.45,0,0,1-1.4,1.5H35.4v1h15v-1H47a1.59,1.59,0,0,1-1.4-1.3" transform="translate(0 0.1)"/></svg>