<?xml version="1.0" encoding="utf-8"?>
<!-- Generator: Adobe Illustrator 23.1.0, SVG Export Plug-In . SVG Version: 6.00 Build 0)  -->
<svg version="1.1" id="Layer_1" xmlns="http://www.w3.org/2000/svg" xmlns:xlink="http://www.w3.org/1999/xlink" x="0px" y="0px"
	 viewBox="0 0 353 122.8" style="enable-background:new 0 0 353 122.8;" xml:space="preserve">
<style type="text/css">
	.st0{fill:#FFFFFF;}
</style>
<g>
	<path class="st0" d="M108.4,93.6c1.1,0,1.3-0.2,1.3-0.7v-7.4c0-0.5-0.2-0.6-1.3-0.7v-0.2h4.2c3.1,0,4.1,1,4.1,2.6
		c0,1.5-1,2.6-4.1,2.6h-0.7v3c0,0.5,0.2,0.6,1.4,0.7v0.2L108.4,93.6L108.4,93.6z M112.4,89.7c1.6,0,2-0.8,2-2.4
		c0-1.4-0.5-2.4-1.9-2.4h-0.6v4.8H112.4z"/>
	<path class="st0" d="M116.9,93.6c1.1,0,1.3-0.2,1.3-0.7v-7.4c0-0.5-0.2-0.6-1.3-0.7v-0.2h4.8v0.2c-1.1,0-1.3,0.2-1.3,0.7v8h0.6
		c2,0,2.6-0.7,3.8-3.3h0.2l-0.1,3.5L116.9,93.6L116.9,93.6L116.9,93.6z"/>
	<path class="st0" d="M131,90.3h-2.9l-0.5,1.2c-0.5,1.3-0.3,1.8,0.9,2v0.2h-3.1v-0.2c0.9-0.2,1.4-0.8,1.9-2.1l2.7-6.9h1.1l3,8.1
		c0.2,0.7,0.4,0.8,1.4,1v0.2h-5v-0.2c1.2-0.1,1.5-0.3,1.3-1L131,90.3z M130.9,90.1l-1.3-3.7h-0.1l-1.4,3.7H130.9z"/>
	<path class="st0" d="M138,86.5L138,86.5v5c0,1.3,0.5,1.9,1.8,2.1v0.2h-3.7v-0.2c1.2-0.1,1.6-0.7,1.6-2.1v-5.1
		c0-0.8-0.5-1.5-1.6-1.5v-0.2h3.3l4.9,6.3l0,0v-4c0-1.3-0.5-1.9-1.8-2.1v-0.2h3.8v0.2c-1.2,0.2-1.6,0.8-1.6,2.1v7h-0.8L138,86.5z"/>
	<path class="st0" d="M148.8,93.6c1.1,0,1.5-0.2,1.5-0.7v-8H150c-1,0-1.8,1-2.7,2.9h-0.2l0.1-3.1h8.3l0.1,3.1h-0.2
		c-1-1.9-1.7-2.9-2.7-2.9h-0.2v8c0,0.5,0.3,0.6,1.5,0.7v0.2h-5.1v-0.2H148.8z"/>
	<path class="st0" d="M155.5,90.1h3.3v0.5h-3.3V90.1z"/>
	<path class="st0" d="M159.6,93.6c1.1,0,1.3-0.2,1.3-0.7v-7.4c0-0.5-0.2-0.6-1.3-0.7v-0.2h4.6c2.9,0,3.6,1.1,3.6,2.2
		c0,1-0.8,1.9-2.9,2.1V89c2.2,0.1,3.2,1,3.2,2.2c0,1.3-0.9,2.5-3.8,2.5L159.6,93.6L159.6,93.6L159.6,93.6z M163.9,88.9
		c1.4,0,1.7-0.8,1.7-2c0-1.1-0.3-2-1.8-2h-0.7v4H163.9z M164,93.5c1.7,0,1.8-1,1.8-2.3c0-1.1-0.4-2.1-2-2.1H163v4.4H164z"/>
	<path class="st0" d="M173.7,90.3h-2.9l-0.5,1.2c-0.5,1.3-0.3,1.8,0.9,2v0.2h-3.1v-0.2c0.9-0.2,1.4-0.8,1.9-2.1l2.7-6.9h1.1l3,8.1
		c0.2,0.7,0.4,0.8,1.4,1v0.2h-5v-0.2c1.2-0.1,1.5-0.3,1.3-1L173.7,90.3z M173.6,90.1l-1.3-3.7h-0.1l-1.4,3.7H173.6z"/>
	<path class="st0" d="M178.9,90.7h0.2c0.9,1.9,2.1,3,3.3,3c1.1,0,1.7-0.7,1.7-1.5c0-1-0.8-1.5-2.3-2c-1.4-0.5-2.8-1-2.8-2.7
		s1.3-2.9,3.2-2.9c0.8,0,1.5,0.2,2,0.5l0.6-0.6h0.2v3h-0.2c-1-1.8-1.8-2.7-2.8-2.7c-0.8,0-1.5,0.5-1.5,1.4s0.8,1.5,2.3,1.9
		c1.2,0.4,2.6,1,2.6,2.7c0,1.6-1,3.1-3.2,3.1c-0.7,0-1.7-0.2-2.4-0.6L179,94h-0.2L178.9,90.7L178.9,90.7z"/>
	<path class="st0" d="M186.2,93.6c1.1,0,1.3-0.2,1.3-0.7v-7.4c0-0.5-0.2-0.6-1.3-0.7v-0.2h7.9v3.2h-0.2c-1-2.2-1.5-3-3.1-3h-1.2v4
		h0.4c1,0,1.7-0.5,2-1.8h0.2v4H192c-0.4-1.3-1-1.8-2-1.8h-0.4v4.4h1.1c1.9,0,2.5-0.8,3.5-3.2h0.2l-0.1,3.4H186v-0.2H186.2z"/>
	<path class="st0" d="M195.5,93.6c1.1,0,1.3-0.2,1.3-0.7v-7.4c0-0.5-0.2-0.6-1.3-0.7v-0.2h4.4c3.3,0,5,1.8,5,4.4
		c0,2.5-1.3,4.7-4.7,4.7h-4.6L195.5,93.6L195.5,93.6z M199.8,93.5c2,0,2.8-1,2.8-4.3s-1-4.3-2.9-4.3H199v8.6
		C199,93.5,199.8,93.5,199.8,93.5z"/>
</g>
<g>
	<path class="st0" d="M209.9,84.7h1v8.2h4.2v0.9h-5.2V84.7z"/>
	<path class="st0" d="M216.7,84.7h1v9.1h-1V84.7z"/>
	<path class="st0" d="M219.3,84.7h1.1l2.7,7.7l2.7-7.7h1l-3.3,9.2h-0.9L219.3,84.7z"/>
	<path class="st0" d="M228.3,84.7h1v9.1h-1V84.7z"/>
	<path class="st0" d="M231.6,84.7h0.9l4.8,7.2v-7.2h1v9.1h-0.8l-4.9-7.3v7.3h-0.9v-9.1H231.6z"/>
	<path class="st0" d="M240.1,89.3L240.1,89.3c0-2.7,1.7-4.7,4.1-4.7c1.2,0,2,0.3,2.8,1l-0.6,0.8c-0.6-0.5-1.2-0.8-2.2-0.8
		c-1.7,0-3,1.6-3,3.7v0.1c0,2.3,1.2,3.8,3.1,3.8c0.8,0,1.5-0.3,2-0.7v-2.6H244V89h3.2v3.9c-0.7,0.6-1.7,1.1-2.9,1.1
		C241.7,93.9,240.1,92,240.1,89.3z"/>
</g>
<rect x="141.4" y="113.4" class="st0" width="72.3" height="8.5"/>
<g>
	<path class="st0" d="M26.2,36.3v33.6H31c0.3,0,0.5,0.1,0.5,0.5s-0.2,0.5-0.5,0.5H1.1c-0.4,0-0.7-0.1-0.7-0.5s0.2-0.5,0.7-0.5h7.6
		V25.3H2.4c-0.4,0-0.7-0.1-0.7-0.5s0.2-0.5,0.7-0.5h22.2c0.9,0,1.2,0.2,1.2,1.1V26c0,1.7-0.2,4.8-0.3,7.1l0.3,0.2
		c2-6.3,6.8-10.5,14.4-10.5c10.6,0,17.6,5.8,17.6,17.6v29.4h6.4c0.3,0,0.5,0.1,0.5,0.5s-0.2,0.5-0.5,0.5H35.8
		c-0.4,0-0.7-0.1-0.7-0.5s0.2-0.5,0.7-0.5h4.7v-36c0-5.1-2.1-8.1-5.9-8.1C31,25.8,27.4,29.4,26.2,36.3z"/>
	<path class="st0" d="M87.2,72.3C72.3,72.3,61,62.4,61,47.6s11.7-24.7,26.2-24.7s26.2,9.9,26.2,24.7
		C113.5,62.4,102.1,72.3,87.2,72.3z M82.8,69.5c1.1,1.1,2.5,1.7,4.5,1.7s3.4-0.7,4.5-1.7c2.2-2.2,3.4-6.6,3.4-21.9
		S94,27.9,91.8,25.7c-1.1-1.1-2.5-1.7-4.5-1.7s-3.4,0.7-4.5,1.7c-2.2,2.2-3.4,6.6-3.4,21.9S80.6,67.3,82.8,69.5z"/>
	<path class="st0" d="M147.6,58.9V25.3h-7.1c-0.4,0-0.7-0.1-0.7-0.5s0.2-0.5,0.7-0.5h23.3c0.9,0,1.2,0.2,1.2,1.1V70h6.3
		c0.4,0,0.7,0.1,0.7,0.5s-0.2,0.5-0.7,0.5h-22.1c-0.9,0-1.2-0.2-1.2-1.1v-0.8c0-0.9,0.2-5.6,0.2-7.1l-0.3-0.2
		c-2,6.3-6.8,10.5-14.2,10.5c-11.5,0-17.4-6.2-17.4-17.9V25.3h-6.8c-0.4,0-0.7-0.1-0.7-0.5s0.2-0.5,0.7-0.5h22.9
		c0.9,0,1.2,0.2,1.2,1.1v36c0,5.1,2.1,8.1,5.6,8.1C142.8,69.4,146.4,65.8,147.6,58.9z"/>
	<path class="st0" d="M212.9,42.4c-3.7,0-6.4-2.4-6.4-5.9c0-4.9,4.7-7.2,4.7-9.7c0-1.2-1-2.3-2.4-2.3c-4.6,0-8.2,5.4-10.1,13.5v31.9
		h8.5c0.4,0,0.7,0.1,0.7,0.5s-0.2,0.5-0.7,0.5h-33.5c-0.4,0-0.7-0.1-0.7-0.5s0.2-0.5,0.7-0.5h7.6V25.3H175c-0.4,0-0.7-0.1-0.7-0.5
		s0.2-0.5,0.7-0.5h22.3c0.9,0,1.2,0.2,1.2,1.1v5.2c0,1.1,0,2.9-0.1,3.8l0.2,0.3c2-6.6,5.9-11.8,12.7-11.8c5.9,0,10.5,4.2,10.5,9.5
		C221.8,38.3,217.3,42.4,212.9,42.4z"/>
	<path class="st0" d="M220.2,69.9h7V25.3h-5.9c-0.4,0-0.7-0.1-0.7-0.5s0.2-0.5,0.7-0.5h22.1c0.9,0,1.2,0.2,1.2,1.1V70h6.4
		c0.4,0,0.7,0.1,0.7,0.5S251.5,71,251,71h-30.8c-0.4,0-0.7-0.1-0.7-0.5C219.6,70,219.8,69.9,220.2,69.9z"/>
	<path class="st0" d="M279.9,63.6c0-3.4-2.4-6.2-7.5-8.1l-6.4-2.4c-8.4-3.2-11.1-8.5-11.1-14.5c0-8.3,5.8-15.8,17-15.8
		c5.8,0,7.3,2.5,10.5,2.5c1.3,0,2.3-0.5,2.6-1.2c0.2-0.4,0.3-0.7,0.8-0.7c0.4,0,0.5,0.2,0.5,0.7v12.6c0,0.4-0.2,0.7-0.7,0.7
		s-0.5-0.2-0.5-0.7c-0.8-6.3-5.1-12.8-12.5-12.8c-4.4,0-7.6,2.2-7.6,6.1c0,2.8,1.9,5.4,6.4,7.2l8.2,3c9,3.3,12.2,8.2,12.2,15
		c0,9.1-8.7,17-20.3,17c-7.9,0-10.3-3.4-13.4-3.4c-1.4,0-2.3,0.8-2.9,2.1c-0.2,0.4-0.3,0.7-0.8,0.7s-0.5-0.2-0.5-0.7V54.7
		c0-0.4,0.1-0.7,0.5-0.7s0.4,0.2,0.5,0.7c1.7,7.8,6.9,16.6,15.5,16.6C276.1,71.2,279.9,68.3,279.9,63.6z"/>
	<path class="st0" d="M313.6,36.3v33.6h4.8c0.3,0,0.5,0.1,0.5,0.5s-0.2,0.5-0.5,0.5h-29.8c-0.4,0-0.7-0.1-0.7-0.5s0.2-0.5,0.7-0.5
		h7.6v-68h-6.4c-0.3,0-0.5-0.1-0.5-0.5s0.2-0.5,0.5-0.5h22.6c0.9,0,1.2,0.2,1.2,1.1v20.9c0,2-0.3,10.5-0.3,10.5
		c2-6.3,6.8-10.5,14.4-10.5c10.7,0,18,5.8,18,17.6v29.4h6.2c0.3,0,0.5,0.1,0.5,0.5s-0.2,0.5-0.5,0.5h-28.6c-0.4,0-0.7-0.1-0.7-0.5
		s0.2-0.5,0.7-0.5h5v-36c0-5.1-2.2-8.1-6.2-8.1C318.4,25.8,314.8,29.4,313.6,36.3z"/>
</g>
<path class="st0" d="M235.9,0.9c4.9,0,8.8,3.8,8.8,8.4s-4,8.3-8.8,8.3s-8.7-3.7-8.7-8.3S231.1,0.9,235.9,0.9z"/>
</svg>
